<svg id="Layer_1" data-name="Layer 1" xmlns="http://www.w3.org/2000/svg" viewBox="0 0 204.13 30.13"><defs><style>.cls-1{fill:#eee;}.cls-1,.cls-2{stroke:#111;stroke-width:0.13px;}</style></defs><title>temp</title><g id="Piano"><g id="Left"><g id="LeftWhiteKeys"><rect class="cls-1" x="0.06" y="0.06" width="4" height="30"/><rect class="cls-1" x="4.06" y="0.06" width="4" height="30"/></g><g id="LeftBlackKey"><rect class="cls-2" x="2.19" y="0.06" width="2.5" height="20"/></g></g><g id="Octave"><g id="WhiteKeys"><rect class="cls-1" x="8.06" y="0.06" width="4" height="30"/><rect class="cls-1" x="12.06" y="0.06" width="4" height="30"/><rect class="cls-1" x="16.06" y="0.06" width="4" height="30"/><rect class="cls-1" x="20.06" y="0.06" width="4" height="30"/><rect class="cls-1" x="24.06" y="0.06" width="4" height="30"/><rect class="cls-1" x="28.06" y="0.06" width="4" height="30"/><rect class="cls-1" x="32.06" y="0.06" width="4" height="30"/></g><g id="BlackKeys"><rect class="cls-2" x="10.19" y="0.06" width="2.5" height="20"/><rect class="cls-2" x="15.31" y="0.06" width="2.5" height="20"/><rect class="cls-2" x="22.19" y="0.06" width="2.5" height="20"/><rect class="cls-2" x="26.81" y="0.06" width="2.5" height="20"/><rect class="cls-2" x="31.31" y="0.06" width="2.5" height="20"/></g></g><g id="OtherOctaves"><g id="Octave-2" data-name="Octave"><g id="WhiteKeys-2" data-name="WhiteKeys"><rect class="cls-1" x="36.06" y="0.06" width="4" height="30"/><rect class="cls-1" x="40.06" y="0.06" width="4" height="30"/><rect class="cls-1" x="44.06" y="0.06" width="4" height="30"/><rect class="cls-1" x="48.06" y="0.06" width="4" height="30"/><rect class="cls-1" x="52.06" y="0.06" width="4" height="30"/><rect class="cls-1" x="56.06" y="0.06" width="4" height="30"/><rect class="cls-1" x="60.06" y="0.06" width="4" height="30"/></g><g id="BlackKeys-2" data-name="BlackKeys"><rect class="cls-2" x="38.19" y="0.06" width="2.5" height="20"/><rect class="cls-2" x="43.31" y="0.06" width="2.5" height="20"/><rect class="cls-2" x="50.19" y="0.06" width="2.5" height="20"/><rect class="cls-2" x="54.81" y="0.06" width="2.5" height="20"/><rect class="cls-2" x="59.31" y="0.06" width="2.5" height="20"/></g></g><g id="Octave-3" data-name="Octave"><g id="WhiteKeys-3" data-name="WhiteKeys"><rect class="cls-1" x="64.06" y="0.06" width="4" height="30"/><rect class="cls-1" x="68.06" y="0.06" width="4" height="30"/><rect class="cls-1" x="72.06" y="0.06" width="4" height="30"/><rect class="cls-1" x="76.06" y="0.06" width="4" height="30"/><rect class="cls-1" x="80.06" y="0.06" width="4" height="30"/><rect class="cls-1" x="84.06" y="0.06" width="4" height="30"/><rect class="cls-1" x="88.06" y="0.06" width="4" height="30"/></g><g id="BlackKeys-3" data-name="BlackKeys"><rect class="cls-2" x="66.19" y="0.06" width="2.5" height="20"/><rect class="cls-2" x="71.31" y="0.06" width="2.5" height="20"/><rect class="cls-2" x="78.19" y="0.06" width="2.5" height="20"/><rect class="cls-2" x="82.81" y="0.06" width="2.5" height="20"/><rect class="cls-2" x="87.31" y="0.06" width="2.5" height="20"/></g></g><g id="Octave-4" data-name="Octave"><g id="WhiteKeys-4" data-name="WhiteKeys"><rect class="cls-1" x="92.06" y="0.06" width="4" height="30"/><rect class="cls-1" x="96.06" y="0.06" width="4" height="30"/><rect class="cls-1" x="100.06" y="0.06" width="4" height="30"/><rect class="cls-1" x="104.06" y="0.06" width="4" height="30"/><rect class="cls-1" x="108.06" y="0.06" width="4" height="30"/><rect class="cls-1" x="112.06" y="0.06" width="4" height="30"/><rect class="cls-1" x="116.06" y="0.06" width="4" height="30"/></g><g id="BlackKeys-4" data-name="BlackKeys"><rect class="cls-2" x="94.19" y="0.06" width="2.5" height="20"/><rect class="cls-2" x="99.31" y="0.06" width="2.5" height="20"/><rect class="cls-2" x="106.19" y="0.06" width="2.5" height="20"/><rect class="cls-2" x="110.81" y="0.06" width="2.5" height="20"/><rect class="cls-2" x="115.31" y="0.06" width="2.5" height="20"/></g></g><g id="Octave-5" data-name="Octave"><g id="WhiteKeys-5" data-name="WhiteKeys"><rect class="cls-1" x="120.06" y="0.06" width="4" height="30"/><rect class="cls-1" x="124.06" y="0.06" width="4" height="30"/><rect class="cls-1" x="128.06" y="0.06" width="4" height="30"/><rect class="cls-1" x="132.06" y="0.06" width="4" height="30"/><rect class="cls-1" x="136.06" y="0.06" width="4" height="30"/><rect class="cls-1" x="140.06" y="0.06" width="4" height="30"/><rect class="cls-1" x="144.06" y="0.06" width="4" height="30"/></g><g id="BlackKeys-5" data-name="BlackKeys"><rect class="cls-2" x="122.19" y="0.06" width="2.5" height="20"/><rect class="cls-2" x="127.31" y="0.06" width="2.5" height="20"/><rect class="cls-2" x="134.19" y="0.06" width="2.5" height="20"/><rect class="cls-2" x="138.81" y="0.06" width="2.5" height="20"/><rect class="cls-2" x="143.31" y="0.06" width="2.5" height="20"/></g></g><g id="Octave-6" data-name="Octave"><g id="WhiteKeys-6" data-name="WhiteKeys"><rect class="cls-1" x="148.06" y="0.06" width="4" height="30"/><rect class="cls-1" x="152.06" y="0.06" width="4" height="30"/><rect class="cls-1" x="156.06" y="0.06" width="4" height="30"/><rect class="cls-1" x="160.06" y="0.06" width="4" height="30"/><rect class="cls-1" x="164.06" y="0.06" width="4" height="30"/><rect class="cls-1" x="168.06" y="0.06" width="4" height="30"/><rect class="cls-1" x="172.06" y="0.06" width="4" height="30"/></g><g id="BlackKeys-6" data-name="BlackKeys"><rect class="cls-2" x="150.19" y="0.06" width="2.5" height="20"/><rect class="cls-2" x="155.31" y="0.06" width="2.5" height="20"/><rect class="cls-2" x="162.19" y="0.06" width="2.5" height="20"/><rect class="cls-2" x="166.81" y="0.06" width="2.5" height="20"/><rect class="cls-2" x="171.31" y="0.06" width="2.5" height="20"/></g></g><g id="Octave-7" data-name="Octave"><g id="WhiteKeys-7" data-name="WhiteKeys"><rect class="cls-1" x="176.06" y="0.06" width="4" height="30"/><rect class="cls-1" x="180.06" y="0.06" width="4" height="30"/><rect class="cls-1" x="184.06" y="0.06" width="4" height="30"/><rect class="cls-1" x="188.06" y="0.06" width="4" height="30"/><rect class="cls-1" x="192.06" y="0.06" width="4" height="30"/><rect class="cls-1" x="196.06" y="0.06" width="4" height="30"/><rect class="cls-1" x="200.06" y="0.06" width="4" height="30"/></g><g id="BlackKeys-7" data-name="BlackKeys"><rect class="cls-2" x="178.19" y="0.06" width="2.5" height="20"/><rect class="cls-2" x="183.31" y="0.06" width="2.5" height="20"/><rect class="cls-2" x="190.19" y="0.06" width="2.5" height="20"/><rect class="cls-2" x="194.81" y="0.06" width="2.5" height="20"/><rect class="cls-2" x="199.31" y="0.06" width="2.5" height="20"/></g></g></g></g></svg>