<svg id="Layer_1" data-name="Layer 1" xmlns="http://www.w3.org/2000/svg" viewBox="0 0 732.17 732.17"><defs><style>.cls-1{fill:#fff;}</style></defs><title>musicianSHIP</title><circle cx="366.08" cy="366.08" r="366.08"/><path class="cls-1" d="M798.2,242.49,762.87,190s-29.8-36.37-29.62-97.09l-15.6-2L668.4,418.9l-4.21,28S617.76,412.11,556.74,448s-38.52,71.34-38.52,71.34,27.61,54.22,117.54,11.07c0,0,34.4-17.45,40.29-56.6l7.83-52.19L716,208c25.35,9.21,121.56,48.67,101.13,181.88,0,0-1,6.53,10.06-13.85C827.15,376.05,848.14,320.05,798.2,242.49Z" transform="translate(-245.92 -25)"/><path class="cls-1" d="M697,95.6S411.34,115.47,346,388.36c0,0,115.36-58.38,285.69,15C631.73,403.33,623,206.34,697,95.6Z" transform="translate(-245.92 -25)"/><path class="cls-1" d="M383.75,578.28c34.88-5.13,96.53-12.27,146.35-15-15.93-7.62-36.05-26.12-41.49-47.34,0,0-17.41-58.23,58.23-91.42,3.15-1.38-150.19-21.22-274.26,6C272.58,430.53,321.65,531.75,383.75,578.28Z" transform="translate(-245.92 -25)"/><path class="cls-1" d="M708.44,457.74c0,61-48.15,93.6-78.35,106.66,52.28,2.06,132.2,7,192.68,15.28,35.09-22.24,76.14-64.8,76.14-64.8C814,474.61,708.44,457.74,708.44,457.74ZM757,536a19.86,19.86,0,1,1,19.86-19.86A19.86,19.86,0,0,1,757,536Z" transform="translate(-245.92 -25)"/><path class="cls-1" d="M907.79,606.77h0c-317.07-51-507.09-21.74-591.63-.06,90.93,128,229.72,143.94,229.72,143.94C703,689.78,858,653.49,869.38,650.85l.06-.06c-139.56,22.2-250.13,51.37-336.25,81Q518.35,727.18,505,722c182-56.59,374.55-82.12,375.65-82.26h0c-179.28,11.62-313.14,38.8-409.57,67.47q-12.68-6.19-23.75-12.63c202.82-54,442.47-66.25,443.51-66.31h0C674.2,624.84,520.42,649.37,418.64,676c-7.41-5.33-14-10.56-19.92-15.58C610.42,611.09,887.4,617,899.39,617.32l0,0c-252.21-23.17-422.09-1.86-523.24,21.62a190.89,190.89,0,0,1-12.88-15.39C586.06,576.64,906.69,606.67,907.79,606.77Z" transform="translate(-245.92 -25)"/></svg>