<?xml version="1.0" encoding="utf-8"?>
<!-- Generator: Adobe Illustrator 22.1.0, SVG Export Plug-In . SVG Version: 6.00 Build 0)  -->
<svg version="1.1"
	 id="svg2" inkscape:version="0.44" sodipodi:docbase="/home/fizyk/anizo/wiki/SVG/inne" sodipodi:docname="Pianos_keyboard.svg" sodipodi:version="0.32" xmlns:cc="http://web.resource.org/cc/" xmlns:dc="http://purl.org/dc/elements/1.1/" xmlns:inkscape="http://www.inkscape.org/namespaces/inkscape" xmlns:rdf="http://www.w3.org/1999/02/22-rdf-syntax-ns#" xmlns:sodipodi="http://sodipodi.sourceforge.net/DTD/sodipodi-0.dtd" xmlns:svg="http://www.w3.org/2000/svg"
	 xmlns="http://www.w3.org/2000/svg" xmlns:xlink="http://www.w3.org/1999/xlink" x="0px" y="0px" viewBox="0 0 1548 1548"
	 style="enable-background:new 0 0 1548 1548;" xml:space="preserve">
<style type="text/css">
	.st0{fill:#FFFFFF;stroke:#000000;stroke-width:0.9763;}
	.st1{stroke:#000000;stroke-width:1.4626;}
</style>
<sodipodi:namedview  bordercolor="#666666" borderopacity="1.0" gridtolerance="10.0" guidetolerance="10.0" height="152px" id="base" inkscape:current-layer="svg2" inkscape:cx="1058.8058" inkscape:cy="-27.611627" inkscape:pageopacity="0.0" inkscape:pageshadow="2" inkscape:window-height="670" inkscape:window-width="958" inkscape:window-x="0" inkscape:window-y="0" inkscape:zoom="0.63843877" objecttolerance="10.0" pagecolor="#ffffff" width="1250px">
	</sodipodi:namedview>
<g>
	<g id="g4220_3_" transform="translate(1.011871,1.023742)">
		<path id="rect1872_207_" class="st0" d="M-0.5,765.8c0.2-14.8,0.6-29.5,1.3-44.3c0.2-3.2,2.5-5.6,5.1-5.4
			c46.4,3.4,92.7,6.9,139.1,10.3c2.6,0.2,4.7,2.4,4.5,5c-0.6,11.9-1,23.8-1,35.7c0,2.6-2.2,4.8-4.8,4.8
			c-46.5-0.1-92.9-0.1-139.4-0.2C1.6,771.8-0.5,769.1-0.5,765.8z"/>
		<g id="use2768_3_" transform="translate(24,0)">
			<path id="rect1872_206_" class="st0" d="M1.6,707.7c1-14.2,2.3-28.4,3.8-42.5c0.3-3,2.8-5.2,5.4-4.8
				C56.9,667.2,103,674,149,680.8c2.6,0.4,4.5,2.7,4.2,5.2c-1.2,11.4-2.2,22.9-3.1,34.3c-0.2,2.5-2.4,4.4-5.1,4.2
				c-46.4-3.6-92.7-7.2-139.1-10.7C3.4,713.6,1.4,710.9,1.6,707.7z"/>
		</g>
		<g id="use3185_3_" transform="translate(48,0)">
			<path id="rect1872_205_" class="st0" d="M7,651.9c1.7-13.6,3.8-27.2,6.2-40.8c0.5-2.9,3.1-4.8,5.7-4.2
				C64.4,617,110,627,155.6,637c2.6,0.6,4.4,2.9,3.9,5.3c-1.8,11-3.5,21.9-5,32.9c-0.3,2.4-2.7,4.1-5.3,3.7
				c-46.1-6.9-92.1-13.9-138.2-20.8C8.5,657.7,6.6,655,7,651.9z"/>
		</g>
		<g id="use3187_3_" transform="translate(72,0)">
			<path id="rect1872_204_" class="st0" d="M15.5,598.4c2.5-13.1,5.3-26.1,8.5-39c0.7-2.8,3.3-4.4,5.9-3.7
				c44.9,13.1,89.8,26.3,134.8,39.4c2.6,0.7,4.2,3.2,3.6,5.4c-2.6,10.5-4.7,21-6.9,31.5c-0.4,2.3-2.9,3.8-5.5,3.2
				c-45.6-10.2-91.1-20.3-136.7-30.5C16.7,604.2,15,601.3,15.5,598.4z"/>
		</g>
		<g id="use3189_3_" transform="translate(96,0)">
			<path id="rect1872_203_" class="st0" d="M27.1,547.2c3.3-12.5,6.8-25,10.7-37.3c0.8-2.7,3.6-4.1,6.1-3.2
				C88,522.9,132,538.9,176.1,555c2.5,0.9,4,3.4,3.3,5.6c-3.2,9.9-6,20-8.6,30.1c-0.6,2.2-3.1,3.4-5.7,2.7
				c-44.9-13.3-89.8-26.5-134.7-39.8C27.9,552.9,26.4,550,27.1,547.2z"/>
		</g>
		<g id="use3191_3_" transform="translate(120,0)">
			<path id="rect1872_202_" class="st0" d="M41.5,498.3c4-12,8.2-23.8,12.8-35.6c1-2.5,3.8-3.7,6.3-2.6
				c43.1,18.9,86.1,37.8,129.2,56.7c2.5,1.1,3.8,3.6,3,5.7c-3.7,9.5-7.2,19.1-10.3,28.7c-0.7,2.1-3.3,3.1-5.8,2.2
				c-44-16.2-88.1-32.4-132.1-48.6C42,503.8,40.7,500.9,41.5,498.3z"/>
		</g>
		<g id="use3193_3_" transform="translate(144,0)">
			<path id="rect1872_201_" class="st0" d="M58.7,451.7c4.6-11.4,9.6-22.7,14.8-33.8c1.1-2.4,4-3.4,6.4-2.1
				c41.9,21.6,83.8,43.2,125.7,64.8c2.4,1.2,3.6,3.8,2.7,5.8c-4.2,9-8.2,18.1-12,27.3c-0.8,2-3.5,2.8-5.9,1.7
				c-43-19-86-38.1-129.1-57.1C58.9,457.1,57.7,454.2,58.7,451.7z"/>
		</g>
		<g id="use3195_3_" transform="translate(168,0)">
			<path id="rect1872_200_" class="st0" d="M78.6,407.3c5.3-10.8,10.9-21.5,16.7-32.1c1.3-2.3,4.2-3,6.5-1.6
				c40.6,24.1,81.1,48.3,121.7,72.4c2.3,1.4,3.4,4,2.3,5.8c-4.7,8.5-9.2,17.2-13.5,25.9c-0.9,1.9-3.6,2.5-6,1.3
				c-41.8-21.7-83.7-43.4-125.5-65.1C78.4,412.7,77.4,409.7,78.6,407.3z"/>
		</g>
		<g id="use3197_3_" transform="translate(192,0)">
			<path id="rect1872_199_" class="st0" d="M100.9,365.3c5.9-10.3,12.1-20.4,18.5-30.4c1.4-2.2,4.3-2.7,6.6-1.2
				c39.1,26.6,78.2,53.1,117.3,79.7c2.2,1.5,3.1,4.1,2,5.9c-5.2,8-10.2,16.2-14.9,24.5c-1,1.8-3.8,2.2-6.1,0.8
				c-40.5-24.2-81-48.5-121.5-72.7C100.4,370.5,99.6,367.5,100.9,365.3z"/>
		</g>
		<g id="use3199_3_" transform="translate(216,0)">
			<path id="rect1872_198_" class="st0" d="M125.6,325.5c6.5-9.7,13.2-19.3,20.2-28.6c1.5-2,4.5-2.3,6.6-0.7
				c37.5,28.8,75,57.6,112.5,86.5c2.1,1.6,2.9,4.3,1.6,5.9c-5.6,7.5-11.1,15.3-16.3,23.1c-1.2,1.7-3.9,1.9-6.1,0.4
				c-39-26.6-78.1-53.3-117.1-79.9C124.8,330.6,124.1,327.6,125.6,325.5z"/>
		</g>
		<g id="use3201_3_" transform="translate(240,0)">
			<path id="rect1872_197_" class="st0" d="M152.5,288c7.1-9.1,14.4-18,21.8-26.9c1.6-1.9,4.6-2,6.7-0.3
				c35.8,31,71.6,61.9,107.4,92.9c2,1.8,2.6,4.4,1.3,6c-7.2,8.5-10.8,12.8-17.6,21.7c-1.2,1.6-4,1.6-6.1,0
				c-37.4-28.9-74.9-57.8-112.3-86.7C151.4,293,150.9,290,152.5,288z"/>
		</g>
		<g id="use3203_3_" transform="translate(264,0)">
			<path id="rect1872_196_" class="st0" d="M181.5,252.8c7.7-8.5,15.4-16.9,23.3-25.2c1.7-1.8,4.7-1.7,6.7,0.2
				c33.9,33,67.9,65.9,101.8,98.9c1.9,1.9,2.4,4.6,1,6c-7.7,7.9-11.5,12-18.8,20.3c-1.3,1.5-4.1,1.3-6.1-0.4
				c-35.7-31-71.4-62.1-107.1-93.1C180.1,257.7,179.8,254.7,181.5,252.8z"/>
		</g>
		<g id="use3205_3_" transform="translate(288,0)">
			<path id="rect1872_195_" class="st0" d="M212.5,219.9c8.1-8,16.3-15.7,24.7-23.4c1.8-1.7,4.8-1.4,6.6,0.6
				c32,34.8,64,69.6,96,104.4c1.8,2,2.1,4.7,0.6,6c-8.1,7.4-12.1,11.1-20,18.9c-1.4,1.4-4.1,1-6.1-0.8
				c-33.9-33-67.7-66.1-101.6-99.1C210.8,224.6,210.7,221.7,212.5,219.9z"/>
		</g>
		<g id="use3207_3_" transform="translate(312,0)">
			<path id="rect1872_194_" class="st0" d="M245.3,189.3c8.6-7.4,17.2-14.6,26-21.7c1.9-1.5,4.9-1.1,6.6,1
				c29.9,36.5,59.9,73.1,89.8,109.6c1.7,2.1,1.8,4.8,0.3,6c-8.6,6.8-12.8,10.3-21,17.5c-1.5,1.3-4.2,0.8-6-1.2
				c-31.9-34.9-63.8-69.8-95.7-104.7C243.4,193.9,243.4,190.9,245.3,189.3z"/>
		</g>
		<g id="use3209_3_" transform="translate(336,0)">
			<path id="rect1872_193_" class="st0" d="M279.8,161c9-6.8,18-13.4,27.2-20c2-1.4,4.9-0.8,6.5,1.4c27.8,38.1,55.6,76.2,83.3,114.4
				c1.6,2.2,1.5,4.8-0.1,6c-8.9,6.2-13.3,9.5-22,16.1c-1.6,1.2-4.2,0.5-5.9-1.6c-29.8-36.6-59.7-73.2-89.5-109.8
				C277.6,165.4,277.8,162.5,279.8,161z"/>
		</g>
		<g id="use3211_3_" transform="translate(360,0)">
			<path id="rect1872_192_" class="st0" d="M315.8,134.9c9.4-6.2,18.8-12.3,28.3-18.2c2.1-1.3,5-0.5,6.4,1.8
				c25.5,39.6,51.1,79.1,76.6,118.7c1.5,2.3,1.3,4.9-0.4,5.9c-9.3,5.7-13.8,8.6-22.9,14.7c-1.6,1.1-4.2,0.3-5.8-1.9
				c-27.7-38.2-55.4-76.4-83.1-114.5C313.4,139.2,313.8,136.3,315.8,134.9z"/>
		</g>
		<g id="use3213_3_" transform="translate(384,0)">
			<path id="rect1872_191_" class="st0" d="M353.3,111.2c9.7-5.6,19.5-11.1,29.3-16.5c2.2-1.2,5-0.2,6.3,2.1
				c23.2,40.9,46.4,81.7,69.6,122.6c1.3,2.3,1,5-0.8,5.9c-9.6,5.1-14.3,7.8-23.7,13.3c-1.7,1-4.3,0-5.7-2.3
				c-25.4-39.6-50.9-79.2-76.3-118.9C350.7,115.3,351.2,112.4,353.3,111.2z"/>
		</g>
		<g id="use3215_3_" transform="translate(408,0)">
			<path id="rect1872_190_" class="st0" d="M392.2,89.7c10-5.1,20.1-10,30.2-14.8c2.2-1,5,0.1,6.2,2.5c20.8,42,41.6,84.1,62.5,126.1
				c1.2,2.4,0.7,5-1.1,5.8c-9.9,4.6-14.7,6.9-24.4,11.9c-1.8,0.9-4.2-0.2-5.6-2.6c-23.1-40.9-46.2-81.8-69.3-122.8
				C389.3,93.6,390,90.8,392.2,89.7z"/>
		</g>
		<g id="use3217_3_" transform="translate(432,0)">
			<path id="rect1872_189_" class="st0" d="M432.1,70.5c10.3-4.5,20.6-8.8,31-13c2.3-0.9,5,0.4,6,2.8
				c18.4,43.1,36.7,86.2,55.1,129.2c1,2.5,0.4,5-1.4,5.8c-10.1,4-15.1,6.1-25,10.5c-1.8,0.8-4.2-0.5-5.4-2.9
				c-20.7-42.1-41.4-84.2-62.2-126.3C429,74.3,429.9,71.5,432.1,70.5z"/>
		</g>
		<g id="use3219_3_" transform="translate(456,0)">
			<path id="rect1872_188_" class="st0" d="M473.2,53.6c10.5-3.9,21.1-7.7,31.7-11.3c2.3-0.8,5,0.6,5.9,3.2
				c15.9,44,31.7,87.9,47.6,131.9c0.9,2.5,0.1,5-1.8,5.7c-10.3,3.4-15.4,5.3-25.6,9.1c-1.9,0.7-4.2-0.7-5.2-3.2
				c-18.3-43.1-36.5-86.2-54.8-129.4C469.9,57.2,470.9,54.5,473.2,53.6z"/>
		</g>
		<g id="use3221_3_" transform="translate(480,0)">
			<path id="rect1872_187_" class="st0" d="M515.1,39c10.7-3.3,21.5-6.5,32.3-9.5c2.4-0.6,4.9,0.9,5.7,3.5
				c13.3,44.7,26.6,89.5,39.9,134.2c0.8,2.6-0.2,5-2.1,5.6c-10.5,2.9-15.7,4.4-26.1,7.7c-1.9,0.6-4.1-0.9-5-3.5
				c-15.7-44-31.5-88-47.2-132C511.6,42.4,512.8,39.8,515.1,39z"/>
		</g>
		<g id="use3223_3_" transform="translate(504,0)">
			<path id="rect1872_186_" class="st0" d="M557.8,26.7c10.9-2.8,21.8-5.3,32.8-7.8c2.4-0.5,4.8,1.2,5.5,3.8
				c10.7,45.4,21.4,90.7,32.1,136.1c0.6,2.6-0.5,5-2.4,5.4c-10.7,2.3-16,3.6-26.5,6.3c-1.9,0.5-4.1-1.2-4.8-3.7
				C581.2,122,568,77.2,554.9,32.5C554.1,29.9,555.4,27.3,557.8,26.7z"/>
		</g>
		<g id="use3225_3_" transform="translate(528,0)">
			<path id="rect1872_185_" class="st0" d="M601.2,16.7c11.1-2.2,22.1-4.2,33.2-6.1c2.4-0.4,4.8,1.4,5.2,4
				c8.1,45.8,16.1,91.7,24.2,137.5c0.5,2.6-0.8,5-2.7,5.3c-10.8,1.7-16.1,2.7-26.8,4.9c-1.9,0.4-4-1.4-4.6-4
				c-10.6-45.4-21.2-90.8-31.8-136.1C597.3,19.7,598.7,17.2,601.2,16.7z"/>
		</g>
		<g id="use3227_3_" transform="translate(552,0)">
			<path id="rect1872_184_" class="st0" d="M645,9c11.2-1.6,22.3-3,33.5-4.3c2.4-0.3,4.7,1.7,5,4.3c5.4,46.2,10.8,92.4,16.2,138.6
				c0.3,2.6-1,4.9-3,5.2c-10.9,1.2-16.3,1.9-27.1,3.5c-2,0.3-3.9-1.6-4.4-4.2c-8-45.9-15.9-91.7-23.9-137.6
				C641,11.8,642.6,9.3,645,9z"/>
		</g>
		<g id="use3229_3_" transform="translate(576,0)">
			<path id="rect1872_183_" class="st0" d="M689.3,3.5c11.2-1,22.5-1.9,33.7-2.6c2.5-0.1,4.6,1.9,4.7,4.5
				c2.7,46.4,5.5,92.8,8.2,139.2c0.2,2.6-1.3,4.9-3.3,5c-10.9,0.6-16.4,1-27.2,2.1c-2,0.2-3.8-1.8-4.1-4.4
				c-5.3-46.2-10.6-92.4-15.9-138.6C685.1,6.1,686.8,3.8,689.3,3.5z"/>
		</g>
		<g id="use3231_3_" transform="translate(600,0)">
			<path id="rect1872_182_" class="st0" d="M733.8,0.4c11.3-0.4,22.5-0.7,33.8-0.9c2.5,0,4.5,2.1,4.5,4.8
				c0.1,46.5,0.1,92.9,0.2,139.4c0,2.7-1.6,4.8-3.6,4.8c-10.9,0.1-16.4,0.2-27.3,0.7c-2,0.1-3.7-2-3.9-4.6
				c-2.6-46.4-5.2-92.8-7.9-139.2C729.4,2.7,731.3,0.5,733.8,0.4z"/>
		</g>
		<g id="use3233_3_" transform="translate(624,0)">
			<path id="rect1872_181_" class="st0" d="M778.4-0.5c11.3,0.1,22.5,0.4,33.8,0.9c2.5,0.1,4.3,2.4,4.2,5
				c-2.6,46.4-5.2,92.8-7.9,139.2c-0.1,2.6-1.9,4.7-3.9,4.6c-10.9-0.5-16.4-0.6-27.3-0.7c-2,0-3.6-2.2-3.6-4.8
				c0.1-46.5,0.1-92.9,0.2-139.4C773.9,1.6,775.9-0.5,778.4-0.5z"/>
		</g>
		<g id="use3235_3_" transform="translate(648,0)">
			<path id="rect1872_180_" class="st0" d="M823,0.9c11.3,0.7,22.5,1.6,33.7,2.6c2.5,0.2,4.2,2.6,3.9,5.2
				c-5.3,46.2-10.6,92.4-15.9,138.6c-0.3,2.6-2.2,4.6-4.1,4.4c-10.9-1.1-16.3-1.5-27.2-2.1c-2-0.1-3.5-2.3-3.3-5
				c2.7-46.4,5.5-92.8,8.2-139.2C818.4,2.8,820.5,0.8,823,0.9z"/>
		</g>
		<g id="use3237_3_" transform="translate(672,0)">
			<path id="rect1872_179_" class="st0" d="M867.4,4.6c11.2,1.3,22.4,2.7,33.5,4.3c2.4,0.4,4,2.8,3.6,5.4
				c-8,45.9-15.9,91.7-23.9,137.6c-0.5,2.6-2.4,4.5-4.4,4.2c-10.8-1.6-16.2-2.3-27.1-3.5c-2-0.2-3.3-2.5-3-5.2
				c5.4-46.2,10.8-92.4,16.2-138.6C862.7,6.3,865,4.4,867.4,4.6z"/>
		</g>
		<g id="use3239_3_" transform="translate(696,0)">
			<path id="rect1872_178_" class="st0" d="M911.6,10.6c11.1,1.9,22.2,3.9,33.2,6.1c2.4,0.5,3.9,3,3.3,5.6
				c-10.6,45.4-21.2,90.8-31.8,136.1c-0.6,2.6-2.7,4.4-4.6,4c-10.7-2.2-16.1-3.2-26.8-4.9c-2-0.3-3.2-2.7-2.7-5.3
				c8.1-45.8,16.1-91.7,24.2-137.5C906.8,12,909.1,10.2,911.6,10.6z"/>
		</g>
		<g id="use3241_3_" transform="translate(720,0)">
			<path id="rect1872_177_" class="st0" d="M955.3,18.9c11,2.5,21.9,5.1,32.8,7.8c2.4,0.6,3.7,3.2,2.9,5.8
				c-13.2,44.8-26.4,89.5-39.6,134.3c-0.8,2.6-2.9,4.2-4.8,3.7c-10.5-2.7-15.8-4-26.5-6.3c-1.9-0.4-3-2.8-2.4-5.4
				c10.7-45.4,21.4-90.7,32.1-136.1C950.5,20.1,952.9,18.4,955.3,18.9z"/>
		</g>
		<g id="use3243_3_" transform="translate(744,0)">
			<path id="rect1872_176_" class="st0" d="M998.5,29.5c10.8,3,21.6,6.2,32.3,9.5c2.3,0.7,3.5,3.4,2.6,5.9
				c-15.7,44-31.5,88-47.2,132c-0.9,2.5-3.2,4.1-5,3.5c-10.4-3.3-15.6-4.8-26.1-7.7c-1.9-0.5-2.9-3-2.1-5.6
				c13.3-44.7,26.6-89.5,39.9-134.2C993.6,30.4,996.2,28.8,998.5,29.5z"/>
		</g>
		<g id="use3245_3_" transform="translate(768,0)">
			<path id="rect1872_175_" class="st0" d="M1041.1,42.4c10.6,3.6,21.2,7.4,31.7,11.3c2.3,0.9,3.3,3.6,2.3,6
				c-18.3,43.1-36.5,86.2-54.8,129.4c-1,2.5-3.4,3.9-5.2,3.2c-10.2-3.9-15.3-5.7-25.6-9.1c-1.9-0.6-2.7-3.2-1.8-5.7
				c15.9-44,31.7-87.9,47.6-131.9C1036.1,43,1038.7,41.6,1041.1,42.4z"/>
		</g>
		<g id="use3247_3_" transform="translate(792,0)">
			<path id="rect1872_174_" class="st0" d="M1082.8,57.5c10.4,4.2,20.7,8.5,31,13c2.2,1,3.1,3.8,1.9,6.2
				c-20.7,42.1-41.4,84.2-62.2,126.3c-1.2,2.4-3.6,3.7-5.4,2.9c-9.9-4.4-14.9-6.5-25-10.5c-1.8-0.7-2.5-3.3-1.4-5.8
				c18.4-43.1,36.7-86.2,55.1-129.2C1077.8,57.9,1080.5,56.6,1082.8,57.5z"/>
		</g>
		<g id="use3249_3_" transform="translate(816,0)">
			<path id="rect1872_173_" class="st0" d="M1123.6,74.9c10.2,4.8,20.2,9.7,30.2,14.8c2.2,1.1,2.9,3.9,1.5,6.3
				c-23.1,40.9-46.2,81.8-69.3,122.8c-1.3,2.3-3.8,3.5-5.6,2.6c-9.7-5-14.5-7.4-24.4-11.9c-1.8-0.8-2.3-3.4-1.1-5.8
				c20.8-42,41.6-84.1,62.5-126.1C1118.6,75,1121.4,73.9,1123.6,74.9z"/>
		</g>
		<g id="use3251_3_" transform="translate(840,0)">
			<path id="rect1872_172_" class="st0" d="M1163.3,94.7c9.9,5.4,19.6,10.8,29.3,16.5c2.1,1.2,2.6,4.1,1.2,6.4
				c-25.4,39.6-50.9,79.2-76.3,118.9c-1.5,2.3-4,3.3-5.7,2.3c-9.4-5.5-14.1-8.2-23.7-13.3c-1.7-0.9-2.1-3.6-0.8-5.9
				c23.2-40.9,46.4-81.7,69.6-122.6C1158.3,94.5,1161.1,93.5,1163.3,94.7z"/>
		</g>
		<g id="use3253_3_" transform="translate(864,0)">
			<path id="rect1872_171_" class="st0" d="M1201.8,116.7c9.5,5.9,19,12,28.3,18.2c2,1.4,2.4,4.3,0.8,6.4
				c-27.7,38.2-55.4,76.4-83.1,114.5c-1.6,2.2-4.2,3-5.8,1.9c-9-6.1-13.6-9-22.9-14.7c-1.7-1-1.9-3.7-0.4-5.9
				c25.5-39.6,51.1-79.1,76.6-118.7C1196.8,116.2,1199.7,115.4,1201.8,116.7z"/>
		</g>
		<g id="use3255_3_" transform="translate(888,0)">
			<path id="rect1872_170_" class="st0" d="M1239,141c9.2,6.5,18.2,13.2,27.2,20c2,1.5,2.1,4.4,0.4,6.5
				c-29.8,36.6-59.7,73.2-89.5,109.8c-1.7,2.1-4.4,2.8-5.9,1.6c-8.6-6.7-13-9.9-22-16.1c-1.6-1.1-1.7-3.8-0.1-6
				c27.8-38.1,55.6-76.2,83.3-114.4C1234,140.2,1237,139.6,1239,141z"/>
		</g>
		<g id="use3257_3_" transform="translate(912,0)">
			<path id="rect1872_169_" class="st0" d="M1274.7,167.6c8.8,7.1,17.4,14.3,26,21.7c1.9,1.6,1.9,4.6,0.1,6.6
				c-31.9,34.9-63.8,69.8-95.7,104.7c-1.8,2-4.5,2.5-6,1.2c-8.2-7.2-12.5-10.7-21-17.5c-1.6-1.2-1.4-3.9,0.3-6
				c29.9-36.5,59.9-73.1,89.8-109.6C1269.8,166.5,1272.7,166.1,1274.7,167.6z"/>
		</g>
		<g id="use3259_3_" transform="translate(936,0)">
			<path id="rect1872_168_" class="st0" d="M1308.8,196.5c8.4,7.7,16.6,15.5,24.7,23.4c1.8,1.8,1.6,4.7-0.3,6.6
				c-33.9,33-67.7,66.1-101.6,99.1c-1.9,1.9-4.6,2.3-6.1,0.8c-7.8-7.8-11.8-11.6-20-18.9c-1.5-1.3-1.2-4,0.6-6
				c32-34.8,64-69.6,96-104.4C1304,195.1,1306.9,194.8,1308.8,196.5z"/>
		</g>
		<g id="use3261_3_" transform="translate(960,0)">
			<path id="rect1872_167_" class="st0" d="M1341.2,227.6c7.9,8.3,15.7,16.6,23.3,25.2c1.7,1.9,1.3,4.9-0.7,6.6
				c-35.7,31-71.4,62.1-107.1,93.1c-2,1.8-4.8,2-6.1,0.4c-7.3-8.3-11.1-12.4-18.8-20.3c-1.4-1.4-1-4.1,1-6
				c33.9-33,67.9-65.9,101.8-98.9C1336.4,226,1339.4,225.9,1341.2,227.6z"/>
		</g>
		<g id="use3263_3_" transform="translate(984,0)">
			<path id="rect1872_166_" class="st0" d="M1371.7,261.1c7.4,8.9,14.7,17.8,21.8,26.9c1.5,2,1.1,5-1.1,6.6
				c-37.4,28.9-74.9,57.8-112.3,86.7c-2.1,1.6-4.9,1.7-6.1,0c-6.9-8.9-10.4-13.2-17.6-21.7c-1.3-1.5-0.7-4.2,1.3-6
				c35.8-31,71.6-61.9,107.4-92.9C1367,259.1,1370,259.2,1371.7,261.1z"/>
		</g>
		<g id="use3265_3_" transform="translate(1008,0)">
			<path id="rect1872_165_" class="st0" d="M1400.2,296.9c7,9.4,13.7,18.9,20.2,28.6c1.4,2.1,0.8,5.1-1.5,6.6
				c-39,26.6-78.1,53.3-117.1,79.9c-2.2,1.5-5,1.3-6.1-0.4c-5.2-7.8-10.7-15.6-16.3-23.1c-1.2-1.6-0.5-4.3,1.6-5.9
				c37.5-28.8,75-57.6,112.5-86.5C1395.7,294.5,1398.7,294.8,1400.2,296.9z"/>
		</g>
		<g id="use3267_3_" transform="translate(1032,0)">
			<path id="rect1872_164_" class="st0" d="M1426.6,334.9c6.4,10,12.6,20.1,18.5,30.4c1.3,2.3,0.5,5.2-1.8,6.6
				c-40.5,24.2-81,48.5-121.5,72.7c-2.3,1.4-5,1-6.1-0.8c-4.7-8.3-9.7-16.5-14.9-24.5c-1.1-1.7-0.2-4.4,2-5.9
				c39.1-26.6,78.2-53.1,117.3-79.7C1422.2,332.2,1425.2,332.7,1426.6,334.9z"/>
		</g>
		<g id="use3269_3_" transform="translate(1056,0)">
			<path id="rect1872_163_" class="st0" d="M1450.7,375.2c5.8,10.6,11.4,21.3,16.7,32.1c1.2,2.4,0.2,5.3-2.2,6.6
				c-41.8,21.7-83.7,43.4-125.5,65.1c-2.4,1.2-5.1,0.7-6-1.3c-4.2-8.8-8.8-17.4-13.5-25.9c-1-1.8,0-4.5,2.3-5.8
				c40.6-24.1,81.1-48.3,121.7-72.4C1446.5,372.2,1449.4,372.9,1450.7,375.2z"/>
		</g>
		<g id="use3271_3_" transform="translate(1080,0)">
			<path id="rect1872_162_" class="st0" d="M1472.4,417.8c5.2,11.2,10.2,22.4,14.8,33.8c1,2.5-0.1,5.4-2.6,6.5
				c-43,19-86,38.1-129.1,57.1c-2.5,1.1-5.1,0.3-5.9-1.7c-3.7-9.2-7.7-18.3-12-27.3c-0.9-2,0.3-4.5,2.7-5.8
				c41.9-21.6,83.8-43.2,125.7-64.8C1468.4,414.5,1471.3,415.4,1472.4,417.8z"/>
		</g>
		<g id="use3273_3_" transform="translate(1104,0)">
			<path id="rect1872_161_" class="st0" d="M1491.6,462.7c4.6,11.7,8.8,23.6,12.8,35.6c0.9,2.6-0.5,5.5-3,6.5
				c-44,16.2-88.1,32.4-132.1,48.6c-2.5,0.9-5.1-0.1-5.8-2.2c-3.2-9.7-6.6-19.3-10.3-28.7c-0.8-2.1,0.5-4.6,3-5.7
				c43.1-18.9,86.1-37.8,129.2-56.7C1487.8,459,1490.6,460.2,1491.6,462.7z"/>
		</g>
		<g id="use3275_3_" transform="translate(1128,0)">
			<path id="rect1872_160_" class="st0" d="M1508.2,509.9c3.9,12.3,7.4,24.8,10.7,37.3c0.7,2.8-0.8,5.6-3.3,6.4
				c-44.9,13.3-89.8,26.5-134.7,39.8c-2.6,0.8-5.1-0.4-5.7-2.7c-2.6-10.1-5.5-20.2-8.6-30.1c-0.7-2.2,0.8-4.6,3.3-5.6
				c44.1-16.1,88.1-32.2,132.2-48.3C1504.6,505.8,1507.3,507.3,1508.2,509.9z"/>
		</g>
		<g id="use3277_3_" transform="translate(1152,0)">
			<path id="rect1872_159_" class="st0" d="M1521.9,559.4c3.1,12.9,6,26,8.5,39c0.6,2.9-1.1,5.7-3.7,6.3
				c-45.6,10.2-91.1,20.3-136.7,30.5c-2.6,0.6-5.1-0.9-5.5-3.2c-2.1-10.6-4.3-21.1-6.9-31.5c-0.5-2.3,1.1-4.7,3.6-5.4
				c44.9-13.1,89.8-26.3,134.8-39.4C1518.6,555,1521.2,556.6,1521.9,559.4z"/>
		</g>
		<g id="use3279_3_" transform="translate(1176,0)">
			<path id="rect1872_158_" class="st0" d="M1532.8,611.2c2.4,13.5,4.4,27.1,6.2,40.8c0.4,3-1.4,5.8-4.1,6.2
				c-46.1,6.9-92.1,13.9-138.2,20.8c-2.6,0.4-5-1.3-5.3-3.7c-1.5-11-3.2-22-5-32.9c-0.4-2.4,1.3-4.7,3.9-5.3
				c45.6-10,91.2-20.1,136.8-30.1C1529.7,606.4,1532.2,608.2,1532.8,611.2z"/>
		</g>
		<g id="use3281_3_" transform="translate(1200,0)">
			<path id="rect1872_157_" class="st0" d="M1540.5,665.2c1.5,14.2,2.8,28.3,3.8,42.5c0.2,3.1-1.8,5.9-4.4,6.1
				c-46.4,3.6-92.7,7.2-139.1,10.7c-2.6,0.2-4.9-1.7-5.1-4.2c-0.9-11.5-1.9-22.9-3.1-34.3c-0.3-2.5,1.6-4.8,4.2-5.2
				c46.1-6.8,92.1-13.6,138.2-20.4C1537.8,660,1540.2,662.2,1540.5,665.2z"/>
		</g>
		<g id="use3283_3_" transform="translate(1224,0)">
			<path id="rect1872_156_" class="st0" d="M1545.1,721.6c0.7,14.8,1.1,29.5,1.3,44.3c0,3.3-2.1,5.9-4.8,5.9
				c-46.5,0.1-92.9,0.1-139.4,0.2c-2.7,0-4.8-2.1-4.8-4.8c-0.1-11.9-0.4-23.8-1-35.7c-0.1-2.6,1.9-4.8,4.5-5
				c46.4-3.4,92.7-6.9,139.1-10.3C1542.7,716,1545,718.4,1545.1,721.6z"/>
		</g>
		<path id="rect3340_143_" class="st1" d="M1,722.4c0.3-6.3,0.5-9.4,0.9-15.6c0.1-1.3,0.6-2.3,1.2-2.3c32.1,2.8,64.2,5.7,96.2,8.5
			c0.6,0,0.9,1,0.9,2.2c-0.4,5.4-0.5,8.1-0.8,13.6c-0.1,1.2-0.6,2.1-1.1,2c-32.1-2-64.3-4-96.4-6C1.3,724.9,0.9,723.8,1,722.4z"/>
		<g id="use4120_3_" transform="translate(48,0)">
			<path id="rect3340_142_" class="st1" d="M13.3,612c1-5.8,1.5-8.6,2.6-14.3c0.2-1.2,0.9-2.1,1.4-1.9c31.5,7.4,63,14.8,94.5,22.2
				c0.5,0.1,0.8,1.1,0.6,2.1c-1,5-1.4,7.5-2.3,12.5c-0.2,1.1-0.8,1.8-1.3,1.7c-31.6-6.6-63.3-13.2-94.9-19.8
				C13.3,614.3,13.1,613.2,13.3,612z"/>
		</g>
		<g id="use4122_3_" transform="translate(72,0)">
			<path id="rect3340_141_" class="st1" d="M24.1,560.2c1.3-5.5,2-8.3,3.5-13.7c0.3-1.2,1-1.9,1.5-1.8c31,9.5,62,19,93,28.5
				c0.5,0.2,0.7,1.1,0.5,2.1c-1.2,4.8-1.8,7.1-3,12c-0.2,1-0.9,1.7-1.4,1.6c-31.2-8.8-62.4-17.5-93.6-26.3
				C24,562.4,23.8,561.4,24.1,560.2z"/>
		</g>
		<g id="use4126_3_" transform="translate(120,0)">
			<path id="rect3340_140_" class="st1" d="M54.3,463.5c1.9-5,2.9-7.5,5-12.5c0.4-1,1.2-1.7,1.7-1.5c29.7,13.5,59.3,27,89,40.4
				c0.5,0.2,0.6,1.2,0.2,2.1c-1.8,4.3-2.6,6.5-4.3,10.9c-0.4,0.9-1.1,1.5-1.6,1.3c-29.9-12.8-59.9-25.6-89.8-38.4
				C54,465.6,53.9,464.6,54.3,463.5z"/>
		</g>
		<g id="use4128_3_" transform="translate(144,0)">
			<path id="rect3340_139_" class="st1" d="M73.4,418.6c2.2-4.8,3.4-7.1,5.7-11.8c0.5-1,1.3-1.6,1.8-1.3
				c28.8,15.3,57.7,30.6,86.5,45.9c0.5,0.3,0.6,1.2,0.1,2c-2,4.1-3,6.2-4.9,10.3c-0.4,0.9-1.1,1.4-1.6,1.1
				c-29.1-14.7-58.3-29.3-87.4-44C73,420.6,73,419.6,73.4,418.6z"/>
		</g>
		<g id="use4130_3_" transform="translate(168,0)">
			<path id="rect3340_138_" class="st1" d="M95.1,375.9c2.5-4.5,3.8-6.8,6.3-11.2c0.5-0.9,1.4-1.5,1.9-1.2
				c27.9,17.1,55.8,34.1,83.7,51.2c0.5,0.3,0.5,1.2,0,2c-2.2,3.9-3.3,5.8-5.5,9.8c-0.5,0.8-1.2,1.3-1.7,1
				c-28.2-16.4-56.5-32.9-84.7-49.3C94.6,377.9,94.6,376.9,95.1,375.9z"/>
		</g>
		<g id="use4134_3_" transform="translate(216,0)">
			<path id="rect3340_137_" class="st1" d="M145.6,297.5c3-4,4.5-6,7.5-10c0.6-0.8,1.5-1.2,2-0.9c25.7,20.3,51.5,40.5,77.2,60.8
				c0.4,0.3,0.3,1.2-0.2,1.9c-2.7,3.5-4,5.2-6.6,8.7c-0.6,0.7-1.4,1.1-1.8,0.7c-26.2-19.7-52.3-39.4-78.5-59.2
				C144.8,299.4,144.9,298.4,145.6,297.5z"/>
		</g>
		<g id="use4136_3_" transform="translate(240,0)">
			<path id="rect3340_136_" class="st1" d="M174,261.8c3.2-3.8,4.8-5.6,8.1-9.3c0.7-0.8,1.6-1.1,2-0.7
				c24.5,21.7,49.1,43.4,73.6,65.2c0.4,0.4,0.3,1.2-0.3,1.9c-2.9,3.2-4.3,4.9-7.1,8.2c-0.6,0.7-1.4,1-1.8,0.6
				c-25-21.2-50-42.4-74.9-63.6C173.1,263.5,173.3,262.6,174,261.8z"/>
		</g>
		<g id="use4140_3_" transform="translate(288,0)">
			<path id="rect3340_135_" class="st1" d="M236.8,197.1c3.6-3.3,5.4-4.9,9.1-8.1c0.8-0.7,1.7-0.9,2.1-0.5
				c21.9,24.4,43.7,48.7,65.6,73.1c0.4,0.4,0.1,1.2-0.5,1.8c-3.2,2.8-4.8,4.2-8,7.1c-0.7,0.6-1.5,0.8-1.9,0.4
				c-22.4-23.9-44.7-47.8-67.1-71.7C235.8,198.7,236.1,197.8,236.8,197.1z"/>
		</g>
		<g id="use4142_3_" transform="translate(312,0)">
			<path id="rect3340_134_" class="st1" d="M270.9,168.2c3.8-3,5.7-4.5,9.6-7.5c0.8-0.6,1.8-0.8,2.1-0.3
				c20.4,25.5,40.9,51.1,61.3,76.6c0.4,0.4,0.1,1.2-0.7,1.8c-3.4,2.6-5,3.9-8.3,6.5c-0.7,0.6-1.6,0.7-1.9,0.2
				c-21-25.1-41.9-50.2-62.9-75.4C269.7,169.7,270.1,168.8,270.9,168.2z"/>
		</g>
		<g id="use4144_3_" transform="translate(336,0)">
			<path id="rect3340_133_" class="st1" d="M306.6,141.6c4-2.8,6-4.1,10-6.9c0.8-0.6,1.8-0.7,2.1-0.2c18.9,26.6,37.9,53.2,56.8,79.8
				c0.3,0.5,0,1.2-0.8,1.7c-3.5,2.4-5.2,3.6-8.7,6c-0.7,0.5-1.6,0.6-1.9,0.1c-19.5-26.2-38.9-52.5-58.4-78.7
				C305.3,143,305.7,142.1,306.6,141.6z"/>
		</g>
		<g id="use4148_3_" transform="translate(384,0)">
			<path id="rect3340_132_" class="st1" d="M382.2,95.2c4.3-2.3,6.4-3.4,10.7-5.6c0.9-0.5,1.9-0.4,2.1,0
				c15.7,28.5,31.5,56.9,47.2,85.4c0.3,0.5-0.2,1.2-0.9,1.6c-3.7,1.9-5.6,2.9-9.3,4.9c-0.8,0.4-1.6,0.4-1.9-0.1
				c-16.3-28.2-32.7-56.3-49-84.5C380.8,96.4,381.3,95.7,382.2,95.2z"/>
		</g>
		<g id="use4150_3_" transform="translate(408,0)">
			<path id="rect3340_131_" class="st1" d="M421.9,75.4c4.4-2,6.6-3,11-5c0.9-0.4,1.9-0.3,2.1,0.2c14.1,29.3,28.2,58.5,42.2,87.8
				c0.2,0.5-0.2,1.2-1,1.6c-3.9,1.7-5.8,2.6-9.6,4.3c-0.8,0.4-1.7,0.3-1.9-0.2c-14.7-29-29.4-58-44-87
				C420.4,76.6,420.9,75.9,421.9,75.4z"/>
		</g>
		<g id="use4154_3_" transform="translate(456,0)">
			<path id="rect3340_130_" class="st1" d="M504.3,42.8c4.6-1.5,6.9-2.3,11.5-3.7c1-0.3,1.9-0.1,2.1,0.4
				c10.6,30.6,21.3,61.1,31.9,91.7c0.2,0.5-0.4,1.2-1.2,1.4c-4,1.3-6,1.9-10,3.3c-0.8,0.3-1.7,0.1-1.9-0.4
				c-11.3-30.4-22.5-60.7-33.8-91.1C502.7,43.8,503.4,43.1,504.3,42.8z"/>
		</g>
		<g id="use4156_3_" transform="translate(480,0)">
			<path id="rect3340_129_" class="st1" d="M546.8,29.9c4.7-1.3,7-1.9,11.7-3.1c1-0.3,1.9,0,2.1,0.5c8.8,31.1,17.7,62.1,26.5,93.2
				c0.2,0.5-0.4,1.1-1.3,1.4c-4.1,1.1-6.1,1.6-10.2,2.7c-0.9,0.2-1.7,0-1.9-0.5c-9.5-30.9-19-61.8-28.5-92.7
				C545.2,30.8,545.9,30.1,546.8,29.9z"/>
		</g>
		<g id="use4158_3_" transform="translate(504,0)">
			<path id="rect3340_128_" class="st1" d="M590,19.3c4.7-1,7.1-1.5,11.9-2.5c1-0.2,1.9,0.1,2,0.6c7,31.5,14.1,63,21.1,94.5
				c0.1,0.5-0.5,1.1-1.4,1.3c-4.1,0.8-6.2,1.3-10.4,2.2c-0.9,0.2-1.7-0.1-1.8-0.6c-7.7-31.3-15.4-62.7-23.1-94
				C588.3,20.1,589,19.5,590,19.3z"/>
		</g>
		<g id="use4162_3_" transform="translate(552,0)">
			<path id="rect3340_127_" class="st1" d="M677.9,4.9c4.8-0.5,7.2-0.8,12.1-1.2c1-0.1,1.9,0.3,2,0.8c3.4,32,6.8,64,10.1,96.1
				c0.1,0.5-0.6,1.1-1.5,1.1c-4.2,0.4-6.3,0.6-10.5,1.1c-0.9,0.1-1.7-0.3-1.7-0.8c-4-32-8.1-63.9-12.1-95.9
				C676.1,5.6,676.9,5,677.9,4.9z"/>
		</g>
		<g id="use4164_3_" transform="translate(576,0)">
			<path id="rect3340_126_" class="st1" d="M722.3,1.2c4.9-0.3,7.3-0.4,12.1-0.6c1,0,1.9,0.4,1.9,0.9c1.5,32.1,3,64.3,4.6,96.4
				c0,0.6-0.7,1-1.6,1.1c-4.2,0.2-6.4,0.3-10.6,0.5c-0.9,0.1-1.6-0.4-1.7-0.9c-2.2-32.1-4.4-64.2-6.6-96.3
				C720.5,1.7,721.3,1.2,722.3,1.2z"/>
		</g>
		<g id="use4168_3_" transform="translate(624,0)">
			<path id="rect3340_125_" class="st1" d="M811.5,0.6c4.9,0.2,7.3,0.3,12.1,0.6c1,0.1,1.8,0.6,1.8,1.1c-2.2,32.1-4.4,64.2-6.6,96.3
				c0,0.6-0.8,1-1.7,0.9c-4.2-0.2-6.4-0.4-10.6-0.5c-0.9,0-1.6-0.5-1.6-1.1c1.5-32.1,3.1-64.3,4.6-96.4
				C809.6,0.9,810.5,0.5,811.5,0.6z"/>
		</g>
		<g id="use4170_3_" transform="translate(648,0)">
			<path id="rect3340_124_" class="st1" d="M856,3.7c4.8,0.5,7.3,0.7,12.1,1.2c1,0.1,1.8,0.7,1.7,1.2c-4,32-8.1,63.9-12.1,95.9
				c-0.1,0.5-0.8,0.9-1.7,0.8c-4.2-0.5-6.3-0.7-10.5-1.1c-0.9-0.1-1.6-0.6-1.5-1.1c3.4-32,6.8-64,10.1-96.1C854.1,4,855,3.6,856,3.7
				z"/>
		</g>
		<g id="use4172_3_" transform="translate(672,0)">
			<path id="rect3340_123_" class="st1" d="M900.2,9.1c4.8,0.7,7.2,1.1,12,1.9c1,0.2,1.7,0.7,1.6,1.3c-5.9,31.7-11.7,63.4-17.6,95.1
				c-0.1,0.5-0.9,0.9-1.8,0.7c-4.2-0.7-6.3-1-10.5-1.6c-0.9-0.1-1.5-0.7-1.4-1.2c5.2-31.8,10.4-63.6,15.7-95.4
				C898.3,9.3,899.2,8.9,900.2,9.1z"/>
		</g>
		<g id="use4176_3_" transform="translate(720,0)">
			<path id="rect3340_122_" class="st1" d="M987.4,26.8c4.7,1.2,7,1.8,11.7,3.1c1,0.3,1.7,0.9,1.5,1.5c-9.5,30.9-19,61.8-28.5,92.7
				c-0.2,0.5-1,0.8-1.9,0.5c-4.1-1.1-6.1-1.7-10.2-2.7c-0.9-0.2-1.4-0.8-1.3-1.4c8.9-31.1,17.7-62.1,26.6-93.2
				C985.5,26.7,986.5,26.5,987.4,26.8z"/>
		</g>
		<g id="use4178_3_" transform="translate(744,0)">
			<path id="rect3340_121_" class="st1" d="M1030.2,39c4.6,1.5,6.9,2.2,11.5,3.7c1,0.3,1.6,1,1.4,1.5
				c-11.3,30.4-22.5,60.7-33.8,91.1c-0.2,0.5-1,0.7-1.9,0.4c-4-1.3-6-2-10-3.3c-0.9-0.3-1.4-0.9-1.2-1.4
				c10.6-30.6,21.3-61.1,31.9-91.7C1028.2,38.9,1029.2,38.7,1030.2,39z"/>
		</g>
		<g id="use4182_3_" transform="translate(792,0)">
			<path id="rect3340_120_" class="st1" d="M1113.1,70.5c4.4,2,6.6,3,11,5c0.9,0.4,1.5,1.2,1.2,1.7c-14.7,29-29.4,58-44,87
				c-0.3,0.5-1.1,0.6-1.9,0.2c-3.8-1.8-5.7-2.6-9.6-4.4c-0.8-0.4-1.3-1.1-1-1.6c14.1-29.3,28.2-58.5,42.3-87.8
				C1111.2,70.1,1112.2,70,1113.1,70.5z"/>
		</g>
		<g id="use4184_3_" transform="translate(816,0)">
			<path id="rect3340_119_" class="st1" d="M1153.1,89.6c4.3,2.2,6.4,3.3,10.7,5.6c0.9,0.5,1.4,1.3,1.1,1.7
				c-16.3,28.2-32.7,56.3-49,84.5c-0.3,0.5-1.1,0.5-1.9,0.1c-3.7-2-5.6-3-9.3-4.9c-0.8-0.4-1.2-1.1-0.9-1.6
				c15.8-28.5,31.5-56.9,47.3-85.4C1151.2,89.1,1152.2,89.1,1153.1,89.6z"/>
		</g>
		<g id="use4186_3_" transform="translate(840,0)">
			<path id="rect3340_118_" class="st1" d="M1191.9,111c4.2,2.5,6.2,3.7,10.4,6.2c0.9,0.5,1.3,1.3,1,1.8
				c-17.9,27.2-35.9,54.5-53.8,81.7c-0.3,0.5-1.2,0.5-1.9,0c-3.6-2.2-5.4-3.3-9-5.4c-0.8-0.5-1.1-1.2-0.8-1.7
				c17.4-27.6,34.7-55.2,52.1-82.8C1190.1,110.5,1191,110.5,1191.9,111z"/>
		</g>
		<g id="use4190_3_" transform="translate(888,0)">
			<path id="rect3340_117_" class="st1" d="M1265.5,160.7c3.8,3,5.8,4.5,9.6,7.5c0.8,0.6,1.2,1.5,0.8,1.9
				c-21,25.1-41.9,50.2-62.9,75.4c-0.4,0.4-1.2,0.3-1.9-0.2c-3.3-2.6-5-3.9-8.3-6.5c-0.7-0.5-1-1.3-0.7-1.8
				c20.4-25.5,40.9-51.1,61.3-76.6C1263.8,160,1264.7,160.1,1265.5,160.7z"/>
		</g>
		<g id="use4192_3_" transform="translate(912,0)">
			<path id="rect3340_116_" class="st1" d="M1300,189c3.7,3.2,5.5,4.8,9.1,8.1c0.8,0.7,1.1,1.6,0.7,2
				c-22.4,23.9-44.7,47.8-67.1,71.7c-0.4,0.4-1.2,0.3-1.9-0.4c-3.2-2.9-4.7-4.3-8-7.1c-0.7-0.6-0.9-1.4-0.5-1.8
				c21.9-24.4,43.8-48.7,65.6-73.1C1298.3,188.1,1299.3,188.3,1300,189z"/>
		</g>
		<g id="use4196_3_" transform="translate(960,0)">
			<path id="rect3340_115_" class="st1" d="M1363.9,252.5c3.3,3.7,4.9,5.6,8.1,9.3c0.7,0.8,0.9,1.7,0.5,2.1
				c-25,21.2-50,42.4-74.9,63.6c-0.4,0.4-1.3,0.1-1.8-0.6c-2.8-3.3-4.2-4.9-7.1-8.2c-0.6-0.7-0.8-1.5-0.3-1.9
				c24.5-21.7,49.1-43.4,73.6-65.2C1362.3,251.3,1363.2,251.7,1363.9,252.5z"/>
		</g>
		<g id="use4198_3_" transform="translate(984,0)">
			<path id="rect3340_114_" class="st1" d="M1392.9,287.6c3.1,4,4.6,5.9,7.5,10c0.6,0.8,0.8,1.8,0.3,2.2
				c-26.2,19.7-52.3,39.4-78.5,59.2c-0.4,0.3-1.3,0-1.8-0.7c-2.6-3.5-3.9-5.2-6.6-8.7c-0.6-0.7-0.7-1.6-0.2-1.9
				c25.7-20.3,51.5-40.5,77.2-60.8C1391.4,286.4,1392.2,286.8,1392.9,287.6z"/>
		</g>
		<g id="use4200_3_" transform="translate(1008,0)">
			<path id="rect3340_113_" class="st1" d="M1419.8,325c2.8,4.2,4.2,6.3,7,10.6c0.6,0.9,0.7,1.9,0.2,2.2
				c-27.3,18.1-54.5,36.3-81.8,54.4c-0.5,0.3-1.3-0.1-1.8-0.9c-2.4-3.7-3.6-5.6-6.1-9.2c-0.5-0.8-0.6-1.7-0.1-2
				c26.9-18.7,53.7-37.4,80.6-56.1C1418.4,323.7,1419.2,324.2,1419.8,325z"/>
		</g>
		<g id="use4204_3_" transform="translate(1056,0)">
			<path id="rect3340_112_" class="st1" d="M1466.9,406.8c2.3,4.7,3.4,7.1,5.7,11.8c0.5,1,0.4,2-0.1,2.3
				c-29.1,14.7-58.3,29.3-87.4,44c-0.5,0.3-1.2-0.3-1.6-1.1c-1.9-4.2-2.9-6.2-4.9-10.3c-0.4-0.9-0.4-1.8,0.1-2
				c28.8-15.3,57.7-30.6,86.5-45.9C1465.6,405.2,1466.4,405.8,1466.9,406.8z"/>
		</g>
		<g id="use4206_3_" transform="translate(1080,0)">
			<path id="rect3340_111_" class="st1" d="M1486.7,451.1c2,5,3,7.4,5,12.5c0.4,1.1,0.3,2.1-0.2,2.3c-29.9,12.8-59.9,25.6-89.8,38.4
				c-0.5,0.2-1.2-0.4-1.6-1.3c-1.7-4.4-2.6-6.6-4.3-10.9c-0.4-0.9-0.3-1.8,0.2-2.1c29.7-13.5,59.3-26.9,89-40.4
				C1485.5,449.4,1486.3,450,1486.7,451.1z"/>
		</g>
		<g id="use4210_3_" transform="translate(1128,0)">
			<path id="rect3340_110_" class="st1" d="M1518.4,546.6c1.4,5.5,2.1,8.2,3.5,13.7c0.3,1.2,0.1,2.2-0.5,2.4
				c-31.2,8.8-62.4,17.5-93.6,26.3c-0.5,0.2-1.2-0.6-1.4-1.6c-1.2-4.8-1.8-7.2-3-12c-0.3-1,0-1.9,0.5-2.1c31-9.5,62-19,93-28.5
				C1517.5,544.6,1518.1,545.4,1518.4,546.6z"/>
		</g>
		<g id="use4212_3_" transform="translate(1152,0)">
			<path id="rect3340_109_" class="st1" d="M1530,597.7c1.1,5.7,1.6,8.6,2.6,14.3c0.2,1.2-0.1,2.3-0.6,2.4
				c-31.6,6.6-63.3,13.2-94.9,19.8c-0.5,0.1-1.1-0.7-1.3-1.7c-0.9-5-1.3-7.5-2.3-12.5c-0.2-1.1,0.1-2,0.6-2.1
				c31.5-7.4,63-14.8,94.5-22.2C1529.2,595.6,1529.8,596.5,1530,597.7z"/>
		</g>
		<g id="use4214_3_" transform="translate(1176,0)">
			<path id="rect3340_108_" class="st1" d="M1538.6,651.2c0.8,5.9,1.1,8.9,1.8,15c0.1,1.3-0.2,2.4-0.7,2.4
				c-31.9,4.4-63.9,8.7-95.8,13.1c-0.5,0.1-1.1-0.8-1.2-1.9c-0.6-5.2-0.9-7.9-1.6-13.1c-0.1-1.1,0.2-2.1,0.7-2.1
				c31.9-5.2,63.7-10.3,95.6-15.5C1537.9,649,1538.5,649.9,1538.6,651.2z"/>
		</g>
	</g>
</g>
<sodipodi:namedview  bordercolor="#666666" borderopacity="1.0" gridtolerance="10.0" guidetolerance="10.0" height="152px" id="base" inkscape:current-layer="svg2" inkscape:cx="1058.8058" inkscape:cy="-27.611627" inkscape:pageopacity="0.0" inkscape:pageshadow="2" inkscape:window-height="670" inkscape:window-width="958" inkscape:window-x="0" inkscape:window-y="0" inkscape:zoom="0.63843877" objecttolerance="10.0" pagecolor="#ffffff" width="1250px">
	</sodipodi:namedview>
<g>
	<g id="g4220_4_" transform="translate(1.011871,1.023742)">
		<path id="rect1872_259_" class="st0" d="M1546.4,780.1c-0.2,14.8-0.6,29.5-1.3,44.3c-0.2,3.2-2.5,5.6-5.1,5.4
			c-46.4-3.4-92.7-6.9-139.1-10.3c-2.6-0.2-4.7-2.4-4.5-5c0.6-11.9,1-23.8,1-35.7c0-2.6,2.2-4.8,4.8-4.8
			c46.5,0.1,92.9,0.1,139.4,0.2C1544.3,774.2,1546.5,776.8,1546.4,780.1z"/>
		<g id="use2768_4_" transform="translate(24,0)">
			<path id="rect1872_258_" class="st0" d="M1544.3,838.2c-1,14.2-2.3,28.4-3.8,42.5c-0.3,3-2.8,5.2-5.4,4.8
				c-46.1-6.8-92.1-13.6-138.2-20.4c-2.6-0.4-4.5-2.7-4.2-5.2c1.2-11.4,2.2-22.9,3.1-34.3c0.2-2.5,2.4-4.4,5.1-4.2
				c46.4,3.6,92.7,7.2,139.1,10.7C1542.5,832.3,1544.5,835,1544.3,838.2z"/>
		</g>
		<g id="use3185_4_" transform="translate(48,0)">
			<path id="rect1872_257_" class="st0" d="M1538.9,894c-1.7,13.6-3.8,27.2-6.2,40.8c-0.5,2.9-3.1,4.8-5.7,4.2
				c-45.6-10-91.2-20.1-136.8-30.1c-2.6-0.6-4.4-2.9-3.9-5.3c1.8-11,3.5-21.9,5-32.9c0.3-2.4,2.7-4.1,5.3-3.7
				c46.1,6.9,92.1,13.9,138.2,20.8C1537.5,888.2,1539.3,891,1538.9,894z"/>
		</g>
		<g id="use3187_4_" transform="translate(72,0)">
			<path id="rect1872_256_" class="st0" d="M1530.4,947.5c-2.5,13.1-5.3,26.1-8.5,39c-0.7,2.8-3.3,4.4-5.9,3.7
				c-44.9-13.1-89.8-26.3-134.8-39.4c-2.6-0.7-4.2-3.2-3.6-5.4c2.6-10.5,4.7-21,6.9-31.5c0.4-2.3,2.9-3.8,5.5-3.2
				c45.6,10.2,91.1,20.3,136.7,30.5C1529.3,941.8,1531,944.6,1530.4,947.5z"/>
		</g>
		<g id="use3189_4_" transform="translate(96,0)">
			<path id="rect1872_255_" class="st0" d="M1518.9,998.7c-3.3,12.5-6.8,25-10.7,37.3c-0.8,2.7-3.6,4.1-6.1,3.2
				c-44.1-16.1-88.1-32.2-132.2-48.3c-2.5-0.9-4-3.4-3.3-5.6c3.2-9.9,6-20,8.6-30.1c0.6-2.2,3.1-3.4,5.7-2.7
				c44.9,13.3,89.8,26.5,134.7,39.8C1518.1,993.1,1519.6,995.9,1518.9,998.7z"/>
		</g>
		<g id="use3191_4_" transform="translate(120,0)">
			<path id="rect1872_254_" class="st0" d="M1504.4,1047.6c-4,12-8.2,23.8-12.8,35.6c-1,2.5-3.8,3.7-6.3,2.6
				c-43.1-18.9-86.1-37.8-129.2-56.7c-2.5-1.1-3.8-3.6-3-5.7c3.7-9.5,7.2-19.1,10.3-28.7c0.7-2.1,3.3-3.1,5.8-2.2
				c44,16.2,88.1,32.4,132.1,48.6C1503.9,1042.1,1505.3,1045,1504.4,1047.6z"/>
		</g>
		<g id="use3193_4_" transform="translate(144,0)">
			<path id="rect1872_253_" class="st0" d="M1487.2,1094.3c-4.6,11.4-9.6,22.7-14.8,33.8c-1.1,2.4-4,3.4-6.4,2.1
				c-41.9-21.6-83.8-43.2-125.7-64.8c-2.4-1.2-3.6-3.8-2.7-5.8c4.2-9,8.2-18.1,12-27.3c0.8-2,3.5-2.8,5.9-1.7
				c43,19,86,38.1,129.1,57.1C1487.1,1088.8,1488.2,1091.7,1487.2,1094.3z"/>
		</g>
		<g id="use3195_4_" transform="translate(168,0)">
			<path id="rect1872_252_" class="st0" d="M1467.4,1138.6c-5.3,10.8-10.9,21.5-16.7,32.1c-1.3,2.3-4.2,3-6.5,1.6
				c-40.6-24.1-81.1-48.3-121.7-72.4c-2.3-1.4-3.4-4-2.3-5.8c4.7-8.5,9.2-17.2,13.5-25.9c0.9-1.9,3.6-2.5,6-1.3
				c41.8,21.7,83.7,43.4,125.5,65.1C1467.5,1133.3,1468.5,1136.2,1467.4,1138.6z"/>
		</g>
		<g id="use3197_4_" transform="translate(192,0)">
			<path id="rect1872_251_" class="st0" d="M1445.1,1180.7c-5.9,10.3-12.1,20.4-18.5,30.4c-1.4,2.2-4.3,2.7-6.6,1.2
				c-39.1-26.6-78.2-53.1-117.3-79.7c-2.2-1.5-3.1-4.1-2-5.9c5.2-8,10.2-16.2,14.9-24.5c1-1.8,3.8-2.2,6.1-0.8
				c40.5,24.2,81,48.5,121.5,72.7C1445.5,1175.4,1446.4,1178.4,1445.1,1180.7z"/>
		</g>
		<g id="use3199_4_" transform="translate(216,0)">
			<path id="rect1872_250_" class="st0" d="M1420.4,1220.4c-6.5,9.7-13.2,19.3-20.2,28.6c-1.5,2-4.5,2.3-6.6,0.7
				c-37.5-28.8-75-57.6-112.5-86.5c-2.1-1.6-2.9-4.3-1.6-5.9c5.6-7.5,11.1-15.3,16.3-23.1c1.2-1.7,3.9-1.9,6.1-0.4
				c39,26.6,78.1,53.3,117.1,79.9C1421.1,1215.3,1421.8,1218.3,1420.4,1220.4z"/>
		</g>
		<g id="use3201_4_" transform="translate(240,0)">
			<path id="rect1872_249_" class="st0" d="M1393.5,1257.9c-7.1,9.1-14.4,18-21.8,26.9c-1.6,1.9-4.6,2-6.7,0.3
				c-35.8-31-71.6-61.9-107.4-92.9c-2-1.8-2.6-4.4-1.3-6c7.2-8.5,10.8-12.8,17.6-21.7c1.2-1.6,4-1.6,6.1,0
				c37.4,28.9,74.9,57.8,112.3,86.7C1394.5,1252.9,1395,1255.9,1393.5,1257.9z"/>
		</g>
		<g id="use3203_4_" transform="translate(264,0)">
			<path id="rect1872_248_" class="st0" d="M1364.5,1293.1c-7.7,8.5-15.4,16.9-23.3,25.2c-1.7,1.8-4.7,1.7-6.7-0.2
				c-33.9-33-67.9-65.9-101.8-98.9c-1.9-1.9-2.4-4.6-1-6c7.7-7.9,11.5-12,18.8-20.3c1.3-1.5,4.1-1.3,6.1,0.4
				c35.7,31,71.4,62.1,107.1,93.1C1365.8,1288.3,1366.1,1291.2,1364.5,1293.1z"/>
		</g>
		<g id="use3205_4_" transform="translate(288,0)">
			<path id="rect1872_247_" class="st0" d="M1333.5,1326c-8.1,8-16.3,15.7-24.7,23.4c-1.8,1.7-4.8,1.4-6.6-0.6
				c-32-34.8-64-69.6-96-104.4c-1.8-2-2.1-4.7-0.6-6c8.1-7.4,12.1-11.1,20-18.9c1.4-1.4,4.1-1,6.1,0.8c33.9,33,67.7,66.1,101.6,99.1
				C1335.1,1321.3,1335.3,1324.3,1333.5,1326z"/>
		</g>
		<g id="use3207_4_" transform="translate(312,0)">
			<path id="rect1872_246_" class="st0" d="M1300.7,1356.6c-8.6,7.4-17.2,14.6-26,21.7c-1.9,1.5-4.9,1.1-6.6-1
				c-29.9-36.5-59.9-73.1-89.8-109.6c-1.7-2.1-1.8-4.8-0.3-6c8.6-6.8,12.8-10.3,21-17.5c1.5-1.3,4.2-0.8,6,1.2
				c31.9,34.9,63.8,69.8,95.7,104.7C1302.6,1352.1,1302.6,1355,1300.7,1356.6z"/>
		</g>
		<g id="use3209_4_" transform="translate(336,0)">
			<path id="rect1872_245_" class="st0" d="M1266.2,1385c-9,6.8-18,13.4-27.2,20c-2,1.4-4.9,0.8-6.5-1.4
				c-27.8-38.1-55.6-76.2-83.3-114.4c-1.6-2.2-1.5-4.8,0.1-6c8.9-6.2,13.3-9.5,22-16.1c1.6-1.2,4.2-0.5,5.9,1.6
				c29.8,36.6,59.7,73.2,89.5,109.8C1268.3,1380.5,1268.1,1383.5,1266.2,1385z"/>
		</g>
		<g id="use3211_4_" transform="translate(360,0)">
			<path id="rect1872_244_" class="st0" d="M1230.1,1411c-9.4,6.2-18.8,12.3-28.3,18.2c-2.1,1.3-5,0.5-6.4-1.8
				c-25.5-39.6-51.1-79.1-76.6-118.7c-1.5-2.3-1.3-4.9,0.4-5.9c9.3-5.7,13.8-8.6,22.9-14.7c1.6-1.1,4.2-0.3,5.8,1.9
				c27.7,38.2,55.4,76.4,83.1,114.5C1232.5,1406.7,1232.2,1409.6,1230.1,1411z"/>
		</g>
		<g id="use3213_4_" transform="translate(384,0)">
			<path id="rect1872_243_" class="st0" d="M1192.6,1434.8c-9.7,5.6-19.5,11.1-29.3,16.5c-2.2,1.2-5,0.2-6.3-2.1
				c-23.2-40.9-46.4-81.7-69.6-122.6c-1.3-2.3-1-5,0.8-5.9c9.6-5.1,14.3-7.8,23.7-13.3c1.7-1,4.3,0,5.7,2.3
				c25.4,39.6,50.9,79.2,76.3,118.9C1195.2,1430.7,1194.7,1433.5,1192.6,1434.8z"/>
		</g>
		<g id="use3215_4_" transform="translate(408,0)">
			<path id="rect1872_242_" class="st0" d="M1153.8,1456.2c-10,5.1-20.1,10-30.2,14.8c-2.2,1-5-0.1-6.2-2.5
				c-20.8-42-41.6-84.1-62.5-126.1c-1.2-2.4-0.7-5,1.1-5.8c9.9-4.6,14.7-6.9,24.4-11.9c1.8-0.9,4.2,0.2,5.6,2.6
				c23.1,40.9,46.2,81.8,69.3,122.8C1156.7,1452.3,1156,1455.1,1153.8,1456.2z"/>
		</g>
		<g id="use3217_4_" transform="translate(432,0)">
			<path id="rect1872_241_" class="st0" d="M1113.8,1475.4c-10.3,4.5-20.6,8.8-31,13c-2.3,0.9-5-0.4-6-2.8
				c-18.4-43.1-36.7-86.2-55.1-129.2c-1-2.5-0.4-5,1.4-5.8c10.1-4,15.1-6.1,25-10.5c1.8-0.8,4.2,0.5,5.4,2.9
				c20.7,42.1,41.4,84.2,62.2,126.3C1116.9,1471.6,1116.1,1474.4,1113.8,1475.4z"/>
		</g>
		<g id="use3219_4_" transform="translate(456,0)">
			<path id="rect1872_240_" class="st0" d="M1072.8,1492.3c-10.5,3.9-21.1,7.7-31.7,11.3c-2.3,0.8-5-0.6-5.9-3.2
				c-15.9-44-31.7-87.9-47.6-131.9c-0.9-2.5-0.1-5,1.8-5.7c10.3-3.4,15.4-5.3,25.6-9.1c1.9-0.7,4.2,0.7,5.2,3.2
				c18.3,43.1,36.5,86.2,54.8,129.4C1076.1,1488.7,1075.1,1491.4,1072.8,1492.3z"/>
		</g>
		<g id="use3221_4_" transform="translate(480,0)">
			<path id="rect1872_239_" class="st0" d="M1030.9,1506.9c-10.7,3.3-21.5,6.5-32.3,9.5c-2.4,0.6-4.9-0.9-5.7-3.5
				c-13.3-44.7-26.6-89.5-39.9-134.2c-0.8-2.6,0.2-5,2.1-5.6c10.5-2.9,15.7-4.4,26.1-7.7c1.9-0.6,4.1,0.9,5,3.5
				c15.7,44,31.5,88,47.2,132C1034.4,1503.5,1033.2,1506.1,1030.9,1506.9z"/>
		</g>
		<g id="use3223_4_" transform="translate(504,0)">
			<path id="rect1872_238_" class="st0" d="M988.2,1519.2c-10.9,2.8-21.8,5.3-32.8,7.8c-2.4,0.5-4.8-1.2-5.5-3.8
				c-10.7-45.4-21.4-90.7-32.1-136.1c-0.6-2.6,0.5-5,2.4-5.4c10.7-2.3,16-3.6,26.5-6.3c1.9-0.5,4.1,1.2,4.8,3.7
				c13.2,44.8,26.4,89.5,39.6,134.3C991.8,1516,990.5,1518.6,988.2,1519.2z"/>
		</g>
		<g id="use3225_4_" transform="translate(528,0)">
			<path id="rect1872_237_" class="st0" d="M944.8,1529.2c-11.1,2.2-22.1,4.2-33.2,6.1c-2.4,0.4-4.8-1.4-5.2-4
				c-8.1-45.8-16.1-91.7-24.2-137.5c-0.5-2.6,0.8-5,2.7-5.3c10.8-1.7,16.1-2.7,26.8-4.9c1.9-0.4,4,1.4,4.6,4
				c10.6,45.4,21.2,90.8,31.8,136.1C948.7,1526.2,947.2,1528.7,944.8,1529.2z"/>
		</g>
		<g id="use3227_4_" transform="translate(552,0)">
			<path id="rect1872_236_" class="st0" d="M900.9,1537c-11.2,1.6-22.3,3-33.5,4.3c-2.4,0.3-4.7-1.7-5-4.3
				c-5.4-46.2-10.8-92.4-16.2-138.6c-0.3-2.6,1-4.9,3-5.2c10.9-1.2,16.3-1.9,27.1-3.5c2-0.3,3.9,1.6,4.4,4.2
				c8,45.9,15.9,91.7,23.9,137.6C905,1534.2,903.4,1536.6,900.9,1537z"/>
		</g>
		<g id="use3229_4_" transform="translate(576,0)">
			<path id="rect1872_235_" class="st0" d="M856.7,1542.4c-11.2,1-22.5,1.9-33.7,2.6c-2.5,0.1-4.6-1.9-4.7-4.5
				c-2.7-46.4-5.5-92.8-8.2-139.2c-0.2-2.6,1.3-4.9,3.3-5c10.9-0.6,16.4-1,27.2-2.1c2-0.2,3.8,1.8,4.1,4.4
				c5.3,46.2,10.6,92.4,15.9,138.6C860.9,1539.8,859.1,1542.2,856.7,1542.4z"/>
		</g>
		<g id="use3231_4_" transform="translate(600,0)">
			<path id="rect1872_234_" class="st0" d="M812.2,1545.6c-11.3,0.4-22.5,0.7-33.8,0.9c-2.5,0-4.5-2.1-4.5-4.8
				c-0.1-46.5-0.1-92.9-0.2-139.4c0-2.7,1.6-4.8,3.6-4.8c10.9-0.1,16.4-0.2,27.3-0.7c2-0.1,3.7,2,3.9,4.6
				c2.6,46.4,5.2,92.8,7.9,139.2C816.5,1543.2,814.7,1545.4,812.2,1545.6z"/>
		</g>
		<g id="use3233_4_" transform="translate(624,0)">
			<path id="rect1872_233_" class="st0" d="M767.6,1546.4c-11.3-0.1-22.5-0.4-33.8-0.9c-2.5-0.1-4.3-2.4-4.2-5
				c2.6-46.4,5.2-92.8,7.9-139.2c0.1-2.6,1.9-4.7,3.9-4.6c10.9,0.5,16.4,0.6,27.3,0.7c2,0,3.6,2.2,3.6,4.8
				c-0.1,46.5-0.1,92.9-0.2,139.4C772,1544.3,770,1546.4,767.6,1546.4z"/>
		</g>
		<g id="use3235_4_" transform="translate(648,0)">
			<path id="rect1872_232_" class="st0" d="M723,1545c-11.3-0.7-22.5-1.6-33.7-2.6c-2.5-0.2-4.2-2.6-3.9-5.2
				c5.3-46.2,10.6-92.4,15.9-138.6c0.3-2.6,2.2-4.6,4.1-4.4c10.9,1.1,16.3,1.5,27.2,2.1c2,0.1,3.5,2.3,3.3,5
				c-2.7,46.4-5.5,92.8-8.2,139.2C727.6,1543.1,725.5,1545.1,723,1545z"/>
		</g>
		<g id="use3237_4_" transform="translate(672,0)">
			<path id="rect1872_231_" class="st0" d="M678.5,1541.3c-11.2-1.3-22.4-2.7-33.5-4.3c-2.4-0.4-4-2.8-3.6-5.4
				c8-45.9,15.9-91.7,23.9-137.6c0.5-2.6,2.4-4.5,4.4-4.2c10.8,1.6,16.2,2.3,27.1,3.5c2,0.2,3.3,2.5,3,5.2
				c-5.4,46.2-10.8,92.4-16.2,138.6C683.2,1539.6,681,1541.6,678.5,1541.3z"/>
		</g>
		<g id="use3239_4_" transform="translate(696,0)">
			<path id="rect1872_230_" class="st0" d="M634.4,1535.3c-11.1-1.9-22.2-3.9-33.2-6.1c-2.4-0.5-3.9-3-3.3-5.6
				c10.6-45.4,21.2-90.8,31.8-136.1c0.6-2.6,2.7-4.4,4.6-4c10.7,2.2,16.1,3.2,26.8,4.9c2,0.3,3.2,2.7,2.7,5.3
				c-8.1,45.8-16.1,91.7-24.2,137.5C639.2,1533.9,636.8,1535.7,634.4,1535.3z"/>
		</g>
		<g id="use3241_4_" transform="translate(720,0)">
			<path id="rect1872_229_" class="st0" d="M590.6,1527c-11-2.5-21.9-5.1-32.8-7.8c-2.4-0.6-3.7-3.2-2.9-5.8
				c13.2-44.8,26.4-89.5,39.6-134.3c0.8-2.6,2.9-4.2,4.8-3.7c10.5,2.7,15.8,4,26.5,6.3c1.9,0.4,3,2.8,2.4,5.4
				c-10.7,45.4-21.4,90.7-32.1,136.1C595.5,1525.8,593,1527.5,590.6,1527z"/>
		</g>
		<g id="use3243_4_" transform="translate(744,0)">
			<path id="rect1872_228_" class="st0" d="M547.4,1516.4c-10.8-3-21.6-6.2-32.3-9.5c-2.3-0.7-3.5-3.4-2.6-5.9
				c15.7-44,31.5-88,47.2-132c0.9-2.5,3.2-4.1,5-3.5c10.4,3.3,15.6,4.8,26.1,7.7c1.9,0.5,2.9,3,2.1,5.6
				c-13.3,44.7-26.6,89.5-39.9,134.2C552.3,1515.5,549.8,1517.1,547.4,1516.4z"/>
		</g>
		<g id="use3245_4_" transform="translate(768,0)">
			<path id="rect1872_227_" class="st0" d="M504.9,1503.6c-10.6-3.6-21.2-7.4-31.7-11.3c-2.3-0.9-3.3-3.6-2.3-6
				c18.3-43.1,36.5-86.2,54.8-129.4c1-2.5,3.4-3.9,5.2-3.2c10.2,3.9,15.3,5.7,25.6,9.1c1.9,0.6,2.7,3.2,1.8,5.7
				c-15.9,44-31.7,87.9-47.6,131.9C509.8,1502.9,507.2,1504.3,504.9,1503.6z"/>
		</g>
		<g id="use3247_4_" transform="translate(792,0)">
			<path id="rect1872_226_" class="st0" d="M463.2,1488.4c-10.4-4.2-20.7-8.5-31-13c-2.2-1-3.1-3.8-1.9-6.2
				c20.7-42.1,41.4-84.2,62.2-126.3c1.2-2.4,3.6-3.7,5.4-2.9c9.9,4.4,14.9,6.5,25,10.5c1.8,0.7,2.5,3.3,1.4,5.8
				c-18.4,43.1-36.7,86.2-55.1,129.2C468.1,1488,465.4,1489.3,463.2,1488.4z"/>
		</g>
		<g id="use3249_4_" transform="translate(816,0)">
			<path id="rect1872_225_" class="st0" d="M422.4,1471c-10.2-4.8-20.2-9.7-30.2-14.8c-2.2-1.1-2.9-3.9-1.5-6.3
				c23.1-40.9,46.2-81.8,69.3-122.8c1.3-2.3,3.8-3.5,5.6-2.6c9.7,5,14.5,7.4,24.4,11.9c1.8,0.8,2.3,3.4,1.1,5.8
				c-20.8,42-41.6,84.1-62.5,126.1C427.4,1470.9,424.6,1472,422.4,1471z"/>
		</g>
		<g id="use3251_4_" transform="translate(840,0)">
			<path id="rect1872_224_" class="st0" d="M382.7,1451.3c-9.9-5.4-19.6-10.8-29.3-16.5c-2.1-1.2-2.6-4.1-1.2-6.4
				c25.4-39.6,50.9-79.2,76.3-118.9c1.5-2.3,4-3.3,5.7-2.3c9.4,5.5,14.1,8.2,23.7,13.3c1.7,0.9,2.1,3.6,0.8,5.9
				c-23.2,40.9-46.4,81.7-69.6,122.6C387.7,1451.4,384.8,1452.4,382.7,1451.3z"/>
		</g>
		<g id="use3253_4_" transform="translate(864,0)">
			<path id="rect1872_223_" class="st0" d="M344.2,1429.2c-9.5-5.9-19-12-28.3-18.2c-2-1.4-2.4-4.3-0.8-6.4
				c27.7-38.2,55.4-76.4,83.1-114.5c1.6-2.2,4.2-3,5.8-1.9c9,6.1,13.6,9,22.9,14.7c1.7,1,1.9,3.7,0.4,5.9
				c-25.5,39.6-51.1,79.1-76.6,118.7C349.1,1429.7,346.2,1430.5,344.2,1429.2z"/>
		</g>
		<g id="use3255_4_" transform="translate(888,0)">
			<path id="rect1872_222_" class="st0" d="M307,1404.9c-9.2-6.5-18.2-13.2-27.2-20c-2-1.5-2.1-4.4-0.4-6.5
				c29.8-36.6,59.7-73.2,89.5-109.8c1.7-2.1,4.4-2.8,5.9-1.6c8.6,6.7,13,9.9,22,16.1c1.6,1.1,1.7,3.8,0.1,6
				c-27.8,38.1-55.6,76.2-83.3,114.4C311.9,1405.7,309,1406.3,307,1404.9z"/>
		</g>
		<g id="use3257_4_" transform="translate(912,0)">
			<path id="rect1872_221_" class="st0" d="M271.3,1378.3c-8.8-7.1-17.4-14.3-26-21.7c-1.9-1.6-1.9-4.6-0.1-6.6
				c31.9-34.9,63.8-69.8,95.7-104.7c1.8-2,4.5-2.5,6-1.2c8.2,7.2,12.5,10.7,21,17.5c1.6,1.2,1.4,3.9-0.3,6
				c-29.9,36.5-59.9,73.1-89.8,109.6C276.2,1379.4,273.2,1379.9,271.3,1378.3z"/>
		</g>
		<g id="use3259_4_" transform="translate(936,0)">
			<path id="rect1872_220_" class="st0" d="M237.2,1349.5c-8.4-7.7-16.6-15.5-24.7-23.4c-1.8-1.8-1.6-4.7,0.3-6.6
				c33.9-33,67.7-66.1,101.6-99.1c1.9-1.9,4.6-2.3,6.1-0.8c7.8,7.8,11.8,11.6,20,18.9c1.5,1.3,1.2,4-0.6,6
				c-32,34.8-64,69.6-96,104.4C242,1350.8,239,1351.1,237.2,1349.5z"/>
		</g>
		<g id="use3261_4_" transform="translate(960,0)">
			<path id="rect1872_219_" class="st0" d="M204.8,1318.3c-7.9-8.3-15.7-16.6-23.3-25.2c-1.7-1.9-1.3-4.9,0.7-6.6
				c35.7-31,71.4-62.1,107.1-93.1c2-1.8,4.8-2,6.1-0.4c7.3,8.3,11.1,12.4,18.8,20.3c1.4,1.4,1,4.1-1,6
				c-33.9,33-67.9,65.9-101.8,98.9C209.5,1320,206.5,1320.1,204.8,1318.3z"/>
		</g>
		<g id="use3263_4_" transform="translate(984,0)">
			<path id="rect1872_218_" class="st0" d="M174.3,1284.8c-7.4-8.9-14.7-17.8-21.8-26.9c-1.5-2-1.1-5,1.1-6.6
				c37.4-28.9,74.9-57.8,112.3-86.7c2.1-1.6,4.9-1.7,6.1,0c6.9,8.9,10.4,13.2,17.6,21.7c1.3,1.5,0.7,4.2-1.3,6
				c-35.8,31-71.6,61.9-107.4,92.9C178.9,1286.8,175.9,1286.7,174.3,1284.8z"/>
		</g>
		<g id="use3265_4_" transform="translate(1008,0)">
			<path id="rect1872_217_" class="st0" d="M145.8,1249.1c-7-9.4-13.7-18.9-20.2-28.6c-1.4-2.1-0.8-5.1,1.5-6.6
				c39-26.6,78.1-53.3,117.1-79.9c2.2-1.5,5-1.3,6.1,0.4c5.2,7.8,10.7,15.6,16.3,23.1c1.2,1.6,0.5,4.3-1.6,5.9
				c-37.5,28.8-75,57.6-112.5,86.5C150.3,1251.4,147.3,1251.1,145.8,1249.1z"/>
		</g>
		<g id="use3267_4_" transform="translate(1032,0)">
			<path id="rect1872_216_" class="st0" d="M119.4,1211c-6.4-10-12.6-20.1-18.5-30.4c-1.3-2.3-0.5-5.2,1.8-6.6
				c40.5-24.2,81-48.5,121.5-72.7c2.3-1.4,5-1,6.1,0.8c4.7,8.3,9.7,16.5,14.9,24.5c1.1,1.7,0.2,4.4-2,5.9
				c-39.1,26.6-78.2,53.1-117.3,79.7C123.7,1213.7,120.8,1213.2,119.4,1211z"/>
		</g>
		<g id="use3269_4_" transform="translate(1056,0)">
			<path id="rect1872_215_" class="st0" d="M95.3,1170.7c-5.8-10.6-11.4-21.3-16.7-32.1c-1.2-2.4-0.2-5.3,2.2-6.6
				c41.8-21.7,83.7-43.4,125.5-65.1c2.4-1.2,5.1-0.7,6,1.3c4.2,8.8,8.8,17.4,13.5,25.9c1,1.8,0,4.5-2.3,5.8
				c-40.6,24.1-81.1,48.3-121.7,72.4C99.5,1173.7,96.5,1173,95.3,1170.7z"/>
		</g>
		<g id="use3271_4_" transform="translate(1080,0)">
			<path id="rect1872_214_" class="st0" d="M73.5,1128.1c-5.2-11.2-10.2-22.4-14.8-33.8c-1-2.5,0.1-5.4,2.6-6.5
				c43-19,86-38.1,129.1-57.1c2.5-1.1,5.1-0.3,5.9,1.7c3.7,9.2,7.7,18.3,12,27.3c0.9,2-0.3,4.5-2.7,5.8
				c-41.9,21.6-83.8,43.2-125.7,64.8C77.5,1131.5,74.7,1130.5,73.5,1128.1z"/>
		</g>
		<g id="use3273_4_" transform="translate(1104,0)">
			<path id="rect1872_213_" class="st0" d="M54.3,1083.2c-4.6-11.7-8.8-23.6-12.8-35.6c-0.9-2.6,0.5-5.5,3-6.5
				c44-16.2,88.1-32.4,132.1-48.6c2.5-0.9,5.1,0.1,5.8,2.2c3.2,9.7,6.6,19.3,10.3,28.7c0.8,2.1-0.5,4.6-3,5.7
				c-43.1,18.9-86.1,37.8-129.2,56.7C58.1,1086.9,55.3,1085.7,54.3,1083.2z"/>
		</g>
		<g id="use3275_4_" transform="translate(1128,0)">
			<path id="rect1872_212_" class="st0" d="M37.8,1036c-3.9-12.3-7.4-24.8-10.7-37.3c-0.7-2.8,0.8-5.6,3.3-6.4
				c44.9-13.3,89.8-26.5,134.7-39.8c2.6-0.8,5.1,0.4,5.7,2.7c2.6,10.1,5.5,20.2,8.6,30.1c0.7,2.2-0.8,4.6-3.3,5.6
				C132,1007,88,1023.1,43.9,1039.2C41.4,1040.1,38.6,1038.7,37.8,1036z"/>
		</g>
		<g id="use3277_4_" transform="translate(1152,0)">
			<path id="rect1872_211_" class="st0" d="M24,986.5c-3.1-12.9-6-26-8.5-39c-0.6-2.9,1.1-5.7,3.7-6.3
				c45.6-10.2,91.1-20.3,136.7-30.5c2.6-0.6,5.1,0.9,5.5,3.2c2.1,10.6,4.3,21.1,6.9,31.5c0.5,2.3-1.1,4.7-3.6,5.4
				c-44.9,13.1-89.8,26.3-134.8,39.4C27.4,991,24.7,989.3,24,986.5z"/>
		</g>
		<g id="use3279_4_" transform="translate(1176,0)">
			<path id="rect1872_210_" class="st0" d="M13.2,934.8C10.8,921.2,8.7,907.6,7,894c-0.4-3,1.4-5.8,4.1-6.2
				c46.1-6.9,92.1-13.9,138.2-20.8c2.6-0.4,5,1.3,5.3,3.7c1.5,11,3.2,22,5,32.9c0.4,2.4-1.3,4.7-3.9,5.3
				C110,918.9,64.4,929,18.9,939C16.3,939.6,13.7,937.7,13.2,934.8z"/>
		</g>
		<g id="use3281_4_" transform="translate(1200,0)">
			<path id="rect1872_209_" class="st0" d="M5.4,880.7c-1.5-14.2-2.8-28.3-3.8-42.5c-0.2-3.1,1.8-5.9,4.4-6.1
				c46.4-3.6,92.7-7.2,139.1-10.7c2.6-0.2,4.9,1.7,5.1,4.2c0.9,11.5,1.9,22.9,3.1,34.3c0.3,2.5-1.6,4.8-4.2,5.2
				c-46.1,6.8-92.1,13.6-138.2,20.4C8.2,885.9,5.8,883.8,5.4,880.7z"/>
		</g>
		<g id="use3283_4_" transform="translate(1224,0)">
			<path id="rect1872_208_" class="st0" d="M0.8,824.4c-0.7-14.8-1.1-29.5-1.3-44.3c0-3.3,2.1-5.9,4.8-5.9
				c46.5-0.1,92.9-0.1,139.4-0.2c2.7,0,4.8,2.1,4.8,4.8c0.1,11.9,0.4,23.8,1,35.7c0.1,2.6-1.9,4.8-4.5,5
				c-46.4,3.4-92.7,6.9-139.1,10.3C3.3,829.9,1,827.5,0.8,824.4z"/>
		</g>
		<path id="rect3340_179_" class="st1" d="M1545,823.5c-0.3,6.3-0.5,9.4-0.9,15.6c-0.1,1.3-0.6,2.3-1.2,2.3
			c-32.1-2.8-64.2-5.7-96.2-8.5c-0.6,0-0.9-1-0.9-2.2c0.4-5.4,0.5-8.1,0.8-13.6c0.1-1.2,0.6-2.1,1.1-2c32.1,2,64.3,4,96.4,6
			C1544.6,821.1,1545,822.2,1545,823.5z"/>
		<g id="use4120_4_" transform="translate(48,0)">
			<path id="rect3340_178_" class="st1" d="M1532.7,933.9c-1,5.8-1.5,8.6-2.6,14.3c-0.2,1.2-0.9,2.1-1.4,1.9
				c-31.5-7.4-63-14.8-94.5-22.2c-0.5-0.1-0.8-1.1-0.6-2.1c1-5,1.4-7.5,2.3-12.5c0.2-1.1,0.8-1.8,1.3-1.7
				c31.6,6.6,63.3,13.2,94.9,19.8C1532.6,931.6,1532.9,932.7,1532.7,933.9z"/>
		</g>
		<g id="use4122_4_" transform="translate(72,0)">
			<path id="rect3340_177_" class="st1" d="M1521.9,985.7c-1.3,5.5-2,8.3-3.5,13.7c-0.3,1.2-1,1.9-1.5,1.8c-31-9.5-62-19-93-28.5
				c-0.5-0.2-0.7-1.1-0.5-2.1c1.2-4.8,1.8-7.1,3-12c0.2-1,0.9-1.7,1.4-1.6c31.2,8.8,62.4,17.5,93.6,26.3
				C1522,983.5,1522.2,984.5,1521.9,985.7z"/>
		</g>
		<g id="use4126_4_" transform="translate(120,0)">
			<path id="rect3340_176_" class="st1" d="M1491.7,1082.4c-1.9,5-2.9,7.5-5,12.5c-0.4,1-1.2,1.7-1.7,1.5
				c-29.7-13.5-59.3-27-89-40.4c-0.5-0.2-0.6-1.2-0.2-2.1c1.8-4.3,2.6-6.5,4.3-10.9c0.4-0.9,1.1-1.5,1.6-1.3
				c29.9,12.8,59.9,25.6,89.8,38.4C1492,1080.3,1492.1,1081.4,1491.7,1082.4z"/>
		</g>
		<g id="use4128_4_" transform="translate(144,0)">
			<path id="rect3340_175_" class="st1" d="M1472.5,1127.3c-2.2,4.8-3.4,7.1-5.7,11.8c-0.5,1-1.3,1.6-1.8,1.3
				c-28.8-15.3-57.7-30.6-86.5-45.9c-0.5-0.3-0.6-1.2-0.1-2c2-4.1,3-6.2,4.9-10.3c0.4-0.9,1.1-1.4,1.6-1.1
				c29.1,14.7,58.3,29.3,87.4,44C1473,1125.3,1473,1126.3,1472.5,1127.3z"/>
		</g>
		<g id="use4130_4_" transform="translate(168,0)">
			<path id="rect3340_174_" class="st1" d="M1450.8,1170c-2.5,4.5-3.8,6.8-6.3,11.2c-0.5,0.9-1.4,1.5-1.9,1.2
				c-27.9-17.1-55.8-34.1-83.7-51.2c-0.5-0.3-0.5-1.2,0-2c2.2-3.9,3.3-5.8,5.5-9.8c0.5-0.8,1.2-1.3,1.7-1
				c28.2,16.4,56.5,32.9,84.7,49.3C1451.4,1168,1451.3,1169,1450.8,1170z"/>
		</g>
		<g id="use4134_4_" transform="translate(216,0)">
			<path id="rect3340_173_" class="st1" d="M1400.4,1248.4c-3,4-4.5,6-7.5,10c-0.6,0.8-1.5,1.2-2,0.9
				c-25.7-20.3-51.5-40.5-77.2-60.8c-0.4-0.3-0.3-1.2,0.2-1.9c2.7-3.5,4-5.2,6.6-8.7c0.6-0.7,1.4-1.1,1.8-0.7
				c26.2,19.7,52.3,39.4,78.5,59.2C1401.2,1246.6,1401,1247.5,1400.4,1248.4z"/>
		</g>
		<g id="use4136_4_" transform="translate(240,0)">
			<path id="rect3340_172_" class="st1" d="M1371.9,1284.2c-3.2,3.8-4.8,5.6-8.1,9.3c-0.7,0.8-1.6,1.1-2,0.7
				c-24.5-21.7-49.1-43.4-73.6-65.2c-0.4-0.4-0.3-1.2,0.3-1.9c2.9-3.2,4.3-4.9,7.1-8.2c0.6-0.7,1.4-1,1.8-0.6
				c25,21.2,50,42.4,74.9,63.6C1372.8,1282.4,1372.6,1283.4,1371.9,1284.2z"/>
		</g>
		<g id="use4140_4_" transform="translate(288,0)">
			<path id="rect3340_171_" class="st1" d="M1309.1,1348.8c-3.6,3.3-5.4,4.9-9.1,8.1c-0.8,0.7-1.7,0.9-2.1,0.5
				c-21.9-24.4-43.7-48.7-65.6-73.1c-0.4-0.4-0.1-1.2,0.5-1.8c3.2-2.8,4.8-4.2,8-7.1c0.7-0.6,1.5-0.8,1.9-0.4
				c22.4,23.9,44.7,47.8,67.1,71.7C1310.2,1347.3,1309.9,1348.2,1309.1,1348.8z"/>
		</g>
		<g id="use4142_4_" transform="translate(312,0)">
			<path id="rect3340_170_" class="st1" d="M1275.1,1377.8c-3.8,3-5.7,4.5-9.6,7.5c-0.8,0.6-1.8,0.8-2.1,0.3
				c-20.4-25.5-40.9-51.1-61.3-76.6c-0.4-0.4-0.1-1.2,0.7-1.8c3.4-2.6,5-3.9,8.3-6.5c0.7-0.6,1.6-0.7,1.9-0.2
				c21,25.1,41.9,50.2,62.9,75.4C1276.2,1376.2,1275.9,1377.1,1275.1,1377.8z"/>
		</g>
		<g id="use4144_4_" transform="translate(336,0)">
			<path id="rect3340_169_" class="st1" d="M1239.4,1404.4c-4,2.8-6,4.1-10,6.9c-0.8,0.6-1.8,0.7-2.1,0.2
				c-18.9-26.6-37.9-53.2-56.8-79.8c-0.3-0.5,0-1.2,0.8-1.7c3.5-2.4,5.2-3.6,8.7-6c0.7-0.5,1.6-0.6,1.9-0.1
				c19.5,26.2,38.9,52.5,58.4,78.7C1240.6,1402.9,1240.2,1403.8,1239.4,1404.4z"/>
		</g>
		<g id="use4148_4_" transform="translate(384,0)">
			<path id="rect3340_168_" class="st1" d="M1163.8,1450.7c-4.3,2.3-6.4,3.4-10.7,5.6c-0.9,0.5-1.9,0.4-2.1,0
				c-15.7-28.5-31.5-56.9-47.2-85.4c-0.3-0.5,0.2-1.2,0.9-1.6c3.7-1.9,5.6-2.9,9.3-4.9c0.8-0.4,1.6-0.4,1.9,0.1
				c16.3,28.2,32.7,56.3,49,84.5C1165.2,1449.5,1164.7,1450.3,1163.8,1450.7z"/>
		</g>
		<g id="use4150_4_" transform="translate(408,0)">
			<path id="rect3340_167_" class="st1" d="M1124.1,1470.5c-4.4,2-6.6,3-11,5c-0.9,0.4-1.9,0.3-2.1-0.2
				c-14.1-29.3-28.2-58.5-42.2-87.8c-0.2-0.5,0.2-1.2,1-1.6c3.9-1.7,5.8-2.6,9.6-4.3c0.8-0.4,1.7-0.3,1.9,0.2c14.7,29,29.4,58,44,87
				C1125.6,1469.3,1125,1470.1,1124.1,1470.5z"/>
		</g>
		<g id="use4154_4_" transform="translate(456,0)">
			<path id="rect3340_166_" class="st1" d="M1041.6,1503.2c-4.6,1.5-6.9,2.3-11.5,3.7c-1,0.3-1.9,0.1-2.1-0.4
				c-10.6-30.6-21.3-61.1-31.9-91.7c-0.2-0.5,0.4-1.2,1.2-1.4c4-1.3,6-1.9,10-3.3c0.8-0.3,1.7-0.1,1.9,0.4
				c11.3,30.4,22.5,60.7,33.8,91.1C1043.2,1502.1,1042.6,1502.8,1041.6,1503.2z"/>
		</g>
		<g id="use4156_4_" transform="translate(480,0)">
			<path id="rect3340_165_" class="st1" d="M999.1,1516c-4.7,1.3-7,1.9-11.7,3.1c-1,0.3-1.9,0-2.1-0.5
				c-8.8-31.1-17.7-62.1-26.5-93.2c-0.2-0.5,0.4-1.1,1.3-1.4c4.1-1.1,6.1-1.6,10.2-2.7c0.9-0.2,1.7,0,1.9,0.5
				c9.5,30.9,19,61.8,28.5,92.7C1000.8,1515.1,1000.1,1515.8,999.1,1516z"/>
		</g>
		<g id="use4158_4_" transform="translate(504,0)">
			<path id="rect3340_164_" class="st1" d="M955.9,1526.7c-4.7,1-7.1,1.5-11.9,2.5c-1,0.2-1.9-0.1-2-0.6c-7-31.5-14.1-63-21.1-94.5
				c-0.1-0.5,0.5-1.1,1.4-1.3c4.1-0.8,6.2-1.3,10.4-2.2c0.9-0.2,1.7,0.1,1.8,0.6c7.7,31.3,15.4,62.7,23.1,94
				C957.6,1525.8,956.9,1526.4,955.9,1526.7z"/>
		</g>
		<g id="use4162_4_" transform="translate(552,0)">
			<path id="rect3340_163_" class="st1" d="M868,1541c-4.8,0.5-7.2,0.8-12.1,1.2c-1,0.1-1.9-0.3-2-0.8c-3.4-32-6.8-64-10.1-96.1
				c-0.1-0.5,0.6-1.1,1.5-1.1c4.2-0.4,6.3-0.6,10.5-1.1c0.9-0.1,1.7,0.3,1.7,0.8c4,32,8.1,63.9,12.1,95.9
				C869.8,1540.4,869.1,1540.9,868,1541z"/>
		</g>
		<g id="use4164_4_" transform="translate(576,0)">
			<path id="rect3340_162_" class="st1" d="M823.6,1544.7c-4.9,0.3-7.3,0.4-12.1,0.6c-1,0-1.9-0.4-1.9-0.9
				c-1.5-32.1-3-64.3-4.6-96.4c0-0.6,0.7-1,1.6-1.1c4.2-0.2,6.4-0.3,10.6-0.5c0.9-0.1,1.6,0.4,1.7,0.9c2.2,32.1,4.4,64.2,6.6,96.3
				C825.4,1544.2,824.6,1544.7,823.6,1544.7z"/>
		</g>
		<g id="use4168_4_" transform="translate(624,0)">
			<path id="rect3340_161_" class="st1" d="M734.4,1545.4c-4.9-0.2-7.3-0.3-12.1-0.6c-1-0.1-1.8-0.6-1.8-1.1
				c2.2-32.1,4.4-64.2,6.6-96.3c0-0.6,0.8-1,1.7-0.9c4.2,0.2,6.4,0.4,10.6,0.5c0.9,0,1.6,0.5,1.6,1.1c-1.5,32.1-3.1,64.3-4.6,96.4
				C736.3,1545,735.5,1545.4,734.4,1545.4z"/>
		</g>
		<g id="use4170_4_" transform="translate(648,0)">
			<path id="rect3340_160_" class="st1" d="M689.9,1542.2c-4.8-0.5-7.3-0.7-12.1-1.2c-1-0.1-1.8-0.7-1.7-1.2
				c4-32,8.1-63.9,12.1-95.9c0.1-0.5,0.8-0.9,1.7-0.8c4.2,0.5,6.3,0.7,10.5,1.1c0.9,0.1,1.6,0.6,1.5,1.1c-3.4,32-6.8,64-10.1,96.1
				C691.8,1542,691,1542.3,689.9,1542.2z"/>
		</g>
		<g id="use4172_4_" transform="translate(672,0)">
			<path id="rect3340_159_" class="st1" d="M645.7,1536.8c-4.8-0.7-7.2-1.1-12-1.9c-1-0.2-1.7-0.7-1.6-1.3
				c5.9-31.7,11.7-63.4,17.6-95.1c0.1-0.5,0.9-0.9,1.8-0.7c4.2,0.7,6.3,1,10.5,1.6c0.9,0.1,1.5,0.7,1.4,1.2
				c-5.2,31.8-10.4,63.6-15.7,95.4C647.6,1536.7,646.7,1537,645.7,1536.8z"/>
		</g>
		<g id="use4176_4_" transform="translate(720,0)">
			<path id="rect3340_158_" class="st1" d="M558.5,1519.2c-4.7-1.2-7-1.8-11.7-3.1c-1-0.3-1.7-0.9-1.5-1.5
				c9.5-30.9,19-61.8,28.5-92.7c0.2-0.5,1-0.8,1.9-0.5c4.1,1.1,6.1,1.7,10.2,2.7c0.9,0.2,1.4,0.8,1.3,1.4
				c-8.9,31.1-17.7,62.1-26.6,93.2C560.4,1519.2,559.5,1519.4,558.5,1519.2z"/>
		</g>
		<g id="use4178_4_" transform="translate(744,0)">
			<path id="rect3340_157_" class="st1" d="M515.8,1506.9c-4.6-1.5-6.9-2.2-11.5-3.7c-1-0.3-1.6-1-1.4-1.5
				c11.3-30.4,22.5-60.7,33.8-91.1c0.2-0.5,1-0.7,1.9-0.4c4,1.3,6,2,10,3.3c0.9,0.3,1.4,0.9,1.2,1.4c-10.6,30.6-21.3,61.1-31.9,91.7
				C517.7,1507,516.8,1507.2,515.8,1506.9z"/>
		</g>
		<g id="use4182_4_" transform="translate(792,0)">
			<path id="rect3340_156_" class="st1" d="M432.8,1475.5c-4.4-2-6.6-3-11-5c-0.9-0.4-1.5-1.2-1.2-1.7c14.7-29,29.4-58,44-87
				c0.3-0.5,1.1-0.6,1.9-0.2c3.8,1.8,5.7,2.6,9.6,4.4c0.8,0.4,1.3,1.1,1,1.6c-14.1,29.3-28.2,58.5-42.3,87.8
				C434.7,1475.8,433.8,1475.9,432.8,1475.5z"/>
		</g>
		<g id="use4184_4_" transform="translate(816,0)">
			<path id="rect3340_155_" class="st1" d="M392.8,1456.3c-4.3-2.2-6.4-3.3-10.7-5.6c-0.9-0.5-1.4-1.3-1.1-1.7
				c16.3-28.2,32.7-56.3,49-84.5c0.3-0.5,1.1-0.5,1.9-0.1c3.7,2,5.6,3,9.3,4.9c0.8,0.4,1.2,1.1,0.9,1.6
				c-15.8,28.5-31.5,56.9-47.3,85.4C394.7,1456.8,393.8,1456.8,392.8,1456.3z"/>
		</g>
		<g id="use4186_4_" transform="translate(840,0)">
			<path id="rect3340_154_" class="st1" d="M354,1434.9c-4.2-2.5-6.2-3.7-10.4-6.2c-0.9-0.5-1.3-1.3-1-1.8
				c17.9-27.2,35.9-54.5,53.8-81.7c0.3-0.5,1.2-0.5,1.9,0c3.6,2.2,5.4,3.3,9,5.4c0.8,0.5,1.1,1.2,0.8,1.7
				c-17.4,27.6-34.7,55.2-52.1,82.8C355.9,1435.5,354.9,1435.4,354,1434.9z"/>
		</g>
		<g id="use4190_4_" transform="translate(888,0)">
			<path id="rect3340_153_" class="st1" d="M280.4,1385.2c-3.8-3-5.8-4.5-9.6-7.5c-0.8-0.6-1.2-1.5-0.8-1.9
				c21-25.1,41.9-50.2,62.9-75.4c0.4-0.4,1.2-0.3,1.9,0.2c3.3,2.6,5,3.9,8.3,6.5c0.7,0.5,1,1.3,0.7,1.8
				c-20.4,25.5-40.9,51.1-61.3,76.6C282.2,1386,281.2,1385.8,280.4,1385.2z"/>
		</g>
		<g id="use4192_4_" transform="translate(912,0)">
			<path id="rect3340_152_" class="st1" d="M245.9,1356.9c-3.7-3.2-5.5-4.8-9.1-8.1c-0.8-0.7-1.1-1.6-0.7-2
				c22.4-23.9,44.7-47.8,67.1-71.7c0.4-0.4,1.2-0.3,1.9,0.4c3.2,2.9,4.7,4.3,8,7.1c0.7,0.6,0.9,1.4,0.5,1.8
				c-21.9,24.4-43.8,48.7-65.6,73.1C247.6,1357.8,246.7,1357.6,245.9,1356.9z"/>
		</g>
		<g id="use4196_4_" transform="translate(960,0)">
			<path id="rect3340_151_" class="st1" d="M182.1,1293.5c-3.3-3.7-4.9-5.6-8.1-9.3c-0.7-0.8-0.9-1.7-0.5-2.1
				c25-21.2,50-42.4,74.9-63.6c0.4-0.4,1.3-0.1,1.8,0.6c2.8,3.3,4.2,4.9,7.1,8.2c0.6,0.7,0.8,1.5,0.3,1.9
				c-24.5,21.7-49.1,43.4-73.6,65.2C183.7,1294.6,182.8,1294.3,182.1,1293.5z"/>
		</g>
		<g id="use4198_4_" transform="translate(984,0)">
			<path id="rect3340_150_" class="st1" d="M153.1,1258.3c-3.1-4-4.6-5.9-7.5-10c-0.6-0.8-0.8-1.8-0.3-2.2
				c26.2-19.7,52.3-39.4,78.5-59.2c0.4-0.3,1.3,0,1.8,0.7c2.6,3.5,3.9,5.2,6.6,8.7c0.6,0.7,0.7,1.6,0.2,1.9
				c-25.7,20.3-51.5,40.5-77.2,60.8C154.6,1259.6,153.7,1259.2,153.1,1258.3z"/>
		</g>
		<g id="use4200_4_" transform="translate(1008,0)">
			<path id="rect3340_149_" class="st1" d="M126.1,1220.9c-2.8-4.2-4.2-6.3-7-10.6c-0.6-0.9-0.7-1.9-0.2-2.2
				c27.3-18.1,54.5-36.3,81.8-54.4c0.5-0.3,1.3,0.1,1.8,0.9c2.4,3.7,3.6,5.6,6.1,9.2c0.5,0.8,0.6,1.7,0.1,2
				c-26.9,18.7-53.7,37.4-80.6,56.1C127.6,1222.2,126.7,1221.8,126.1,1220.9z"/>
		</g>
		<g id="use4204_4_" transform="translate(1056,0)">
			<path id="rect3340_148_" class="st1" d="M79.1,1139.1c-2.3-4.7-3.4-7.1-5.7-11.8c-0.5-1-0.4-2,0.1-2.3
				c29.1-14.7,58.3-29.3,87.4-44c0.5-0.3,1.2,0.3,1.6,1.1c1.9,4.2,2.9,6.2,4.9,10.3c0.4,0.9,0.4,1.8-0.1,2
				c-28.8,15.3-57.7,30.6-86.5,45.9C80.4,1140.7,79.6,1140.1,79.1,1139.1z"/>
		</g>
		<g id="use4206_4_" transform="translate(1080,0)">
			<path id="rect3340_147_" class="st1" d="M59.2,1094.8c-2-5-3-7.4-5-12.5c-0.4-1.1-0.3-2.1,0.2-2.3c29.9-12.8,59.9-25.6,89.8-38.4
				c0.5-0.2,1.2,0.4,1.6,1.3c1.7,4.4,2.6,6.6,4.3,10.9c0.4,0.9,0.3,1.8-0.2,2.1c-29.7,13.5-59.3,26.9-89,40.4
				C60.4,1096.5,59.7,1095.9,59.2,1094.8z"/>
		</g>
		<g id="use4210_4_" transform="translate(1128,0)">
			<path id="rect3340_146_" class="st1" d="M27.5,999.4c-1.4-5.5-2.1-8.2-3.5-13.7c-0.3-1.2-0.1-2.2,0.5-2.4
				c31.2-8.8,62.4-17.5,93.6-26.3c0.5-0.2,1.2,0.6,1.4,1.6c1.2,4.8,1.8,7.2,3,12c0.3,1,0,1.9-0.5,2.1c-31,9.5-62,19-93,28.5
				C28.5,1001.3,27.8,1000.5,27.5,999.4z"/>
		</g>
		<g id="use4212_4_" transform="translate(1152,0)">
			<path id="rect3340_145_" class="st1" d="M15.9,948.2c-1.1-5.7-1.6-8.6-2.6-14.3c-0.2-1.2,0.1-2.3,0.6-2.4
				c31.6-6.6,63.3-13.2,94.9-19.8c0.5-0.1,1.1,0.7,1.3,1.7c0.9,5,1.3,7.5,2.3,12.5c0.2,1.1-0.1,2-0.6,2.1
				c-31.5,7.4-63,14.8-94.5,22.2C16.8,950.3,16.1,949.4,15.9,948.2z"/>
		</g>
		<g id="use4214_4_" transform="translate(1176,0)">
			<path id="rect3340_144_" class="st1" d="M7.3,894.8c-0.8-5.9-1.1-8.9-1.8-15c-0.1-1.3,0.2-2.4,0.7-2.4
				c31.9-4.4,63.9-8.7,95.8-13.1c0.5-0.1,1.1,0.8,1.2,1.9c0.6,5.2,0.9,7.9,1.6,13.1c0.1,1.1-0.2,2.1-0.7,2.1
				c-31.9,5.2-63.7,10.3-95.6,15.5C8.1,897,7.5,896,7.3,894.8z"/>
		</g>
	</g>
</g>
</svg>
